G04 Layer_Color=128*
%FSLAX25Y25*%
%MOIN*%
G70*
G01*
G75*
%ADD76C,0.00200*%
D76*
X151181Y268701D02*
X163779D01*
X157480Y262402D02*
Y275000D01*
X235827Y377953D02*
X248425D01*
X242126Y371654D02*
Y384252D01*
X9449Y377953D02*
X22047D01*
X15748Y371654D02*
Y384252D01*
X60040Y233268D02*
X69882D01*
X64961Y228346D02*
Y238189D01*
X60040Y276575D02*
X69882D01*
X64961Y271654D02*
Y281496D01*
X149213Y61811D02*
X156300D01*
X152756Y58268D02*
Y65354D01*
X188583Y61811D02*
X195670D01*
X192126Y58268D02*
Y65354D01*
X115176Y23622D02*
X119076D01*
X117126Y21672D02*
Y25572D01*
X115176Y78622D02*
X119076D01*
X117126Y76672D02*
Y80572D01*
X92538Y18701D02*
X96438D01*
X94488Y16751D02*
Y20651D01*
X92538Y78701D02*
X96438D01*
X94488Y76751D02*
Y80651D01*
X248050Y19685D02*
X251950D01*
X250000Y17735D02*
Y21635D01*
X248050Y79685D02*
X251950D01*
X250000Y77735D02*
Y81635D01*
X225412Y23622D02*
X229312D01*
X227362Y21672D02*
Y25572D01*
X225412Y78622D02*
X229312D01*
X227362Y76672D02*
Y80572D01*
X96875Y9843D02*
X99975D01*
X98425Y8292D02*
Y11393D01*
X126875Y9843D02*
X129975D01*
X128425Y8292D02*
Y11393D01*
X249907Y8858D02*
X253007D01*
X251457Y7308D02*
Y10408D01*
X219907Y8858D02*
X223007D01*
X221457Y7308D02*
Y10408D01*
X20079Y61811D02*
X27165D01*
X23622Y58268D02*
Y65354D01*
X59449Y61811D02*
X66535D01*
X62992Y58268D02*
Y65354D01*
X217228Y367293D02*
X220772D01*
X219000Y365522D02*
Y369065D01*
X37736Y367539D02*
X41280D01*
X39508Y365768D02*
Y369311D01*
X6496Y310039D02*
X11221D01*
X8859Y307677D02*
Y312402D01*
X116733Y310039D02*
X121457D01*
X119095Y307677D02*
Y312402D01*
X6496Y349410D02*
X11221D01*
X8859Y347047D02*
Y351772D01*
X116733Y349410D02*
X121457D01*
X119095Y347047D02*
Y351772D01*
X157087Y302165D02*
X161811D01*
X159449Y299803D02*
Y304528D01*
X225985Y302165D02*
X230709D01*
X228347Y299803D02*
Y304528D01*
X163977Y341535D02*
X168701D01*
X166339Y339173D02*
Y343898D01*
X219095Y341535D02*
X223819D01*
X221457Y339173D02*
Y343898D01*
X89174Y341535D02*
X93898D01*
X91536Y339173D02*
Y343898D01*
X34056Y341535D02*
X38780D01*
X36418Y339173D02*
Y343898D01*
X96063Y302165D02*
X100788D01*
X98426Y299803D02*
Y304528D01*
X27166Y302165D02*
X31890D01*
X29528Y299803D02*
Y304528D01*
X7874Y228346D02*
X23622D01*
X15748Y220472D02*
Y236221D01*
X178347Y93898D02*
X186221D01*
X182284Y89961D02*
Y97835D01*
X230315Y149016D02*
X234252D01*
X232284Y147047D02*
Y150984D01*
X238189Y128937D02*
X246063D01*
X242126Y125000D02*
Y132874D01*
X168504Y163976D02*
X176378D01*
X172441Y160039D02*
Y167913D01*
X230315Y108858D02*
X234252D01*
X232284Y106890D02*
Y110827D01*
X48426Y93898D02*
X56300D01*
X52363Y89961D02*
Y97835D01*
X100394Y149016D02*
X104331D01*
X102363Y147047D02*
Y150984D01*
X108268Y128937D02*
X116142D01*
X112205Y125000D02*
Y132874D01*
X38583Y163976D02*
X46457D01*
X42520Y160039D02*
Y167913D01*
X100394Y108858D02*
X104331D01*
X102363Y106890D02*
Y110827D01*
X55118Y34449D02*
X70866D01*
X62992Y26575D02*
Y42323D01*
X187993Y276575D02*
X197835D01*
X192914Y271654D02*
Y281496D01*
X187993Y233268D02*
X197835D01*
X192914Y228346D02*
Y238189D01*
X96076Y391693D02*
X99619D01*
X97848Y389921D02*
Y393465D01*
X96076Y381693D02*
X99619D01*
X97848Y379921D02*
Y383465D01*
X106076Y391693D02*
X109619D01*
X107848Y389921D02*
Y393465D01*
X106076Y381693D02*
X109619D01*
X107848Y379921D02*
Y383465D01*
X116076Y391693D02*
X119619D01*
X117848Y389921D02*
Y393465D01*
X116076Y381693D02*
X119619D01*
X117848Y379921D02*
Y383465D01*
X126076Y391693D02*
X129619D01*
X127848Y389921D02*
Y393465D01*
X126076Y381693D02*
X129619D01*
X127848Y379921D02*
Y383465D01*
X136076Y391693D02*
X139619D01*
X137848Y389921D02*
Y393465D01*
X136076Y381693D02*
X139619D01*
X137848Y379921D02*
Y383465D01*
X146076Y391693D02*
X149619D01*
X147848Y389921D02*
Y393465D01*
X146076Y381693D02*
X149619D01*
X147848Y379921D02*
Y383465D01*
X156076Y391693D02*
X159619D01*
X157848Y389921D02*
Y393465D01*
X156076Y381693D02*
X159619D01*
X157848Y379921D02*
Y383465D01*
X166076Y391693D02*
X169619D01*
X167848Y389921D02*
Y393465D01*
X166076Y381693D02*
X169619D01*
X167848Y379921D02*
Y383465D01*
X136418Y310039D02*
X141142D01*
X138780Y307677D02*
Y312402D01*
X246654Y310039D02*
X251378D01*
X249016Y307677D02*
Y312402D01*
X136418Y349410D02*
X141142D01*
X138780Y347047D02*
Y351772D01*
X246654Y349410D02*
X251378D01*
X249016Y347047D02*
Y351772D01*
X217228Y377293D02*
X220772D01*
X219000Y375522D02*
Y379065D01*
X37736Y377539D02*
X41280D01*
X39508Y375768D02*
Y379311D01*
X19378Y38632D02*
X27252D01*
X23315Y34695D02*
Y42569D01*
X58748Y38632D02*
X66622D01*
X62685Y34695D02*
Y42569D01*
X230315Y165354D02*
X234252D01*
X232283Y163386D02*
Y167323D01*
X230315Y291339D02*
X234252D01*
X232283Y289370D02*
Y293307D01*
X230315Y185039D02*
X234252D01*
X232283Y183071D02*
Y187008D01*
X230315Y271654D02*
X234252D01*
X232283Y269685D02*
Y273622D01*
X230315Y196850D02*
X234252D01*
X232283Y194882D02*
Y198819D01*
X230315Y259842D02*
X234252D01*
X232283Y257874D02*
Y261811D01*
X104331Y165354D02*
X108268D01*
X106300Y163386D02*
Y167323D01*
X104331Y291339D02*
X108268D01*
X106300Y289370D02*
Y293307D01*
X104331Y185039D02*
X108268D01*
X106300Y183071D02*
Y187008D01*
X104331Y271654D02*
X108268D01*
X106300Y269685D02*
Y273622D01*
X104331Y196850D02*
X108268D01*
X106300Y194882D02*
Y198819D01*
X104331Y259842D02*
X108268D01*
X106300Y257874D02*
Y261811D01*
X135879Y391693D02*
X139816D01*
X137848Y389724D02*
Y393661D01*
X145879Y391693D02*
X149816D01*
X147848Y389724D02*
Y393661D01*
X135879Y381693D02*
X139816D01*
X137848Y379724D02*
Y383661D01*
X145879Y381693D02*
X149816D01*
X147848Y379724D02*
Y383661D01*
X155879Y391693D02*
X159816D01*
X157848Y389724D02*
Y393661D01*
X165879Y391693D02*
X169816D01*
X167848Y389724D02*
Y393661D01*
X155879Y381693D02*
X159816D01*
X157848Y379724D02*
Y383661D01*
X165879Y381693D02*
X169816D01*
X167848Y379724D02*
Y383661D01*
X95879Y391693D02*
X99816D01*
X97848Y389724D02*
Y393661D01*
X125879Y381693D02*
X129816D01*
X127848Y379724D02*
Y383661D01*
X125879Y391693D02*
X129816D01*
X127848Y389724D02*
Y393661D01*
X115879Y381693D02*
X119816D01*
X117848Y379724D02*
Y383661D01*
X115879Y391693D02*
X119816D01*
X117848Y389724D02*
Y393661D01*
X95879Y381693D02*
X99816D01*
X97848Y379724D02*
Y383661D01*
X105879Y391693D02*
X109816D01*
X107848Y389724D02*
Y393661D01*
X105879Y381693D02*
X109816D01*
X107848Y379724D02*
Y383661D01*
X149606Y228346D02*
X165354D01*
X157480Y220472D02*
Y236221D01*
X7874Y268701D02*
X23622D01*
X15748Y260827D02*
Y276575D01*
X161161Y258268D02*
X162461D01*
X161811Y257618D02*
Y258917D01*
X146398Y264370D02*
X147697D01*
X147047Y263720D02*
Y265020D01*
X152500Y279134D02*
X153799D01*
X153150Y278484D02*
Y279784D01*
X167264Y273031D02*
X168563D01*
X167913Y272382D02*
Y273681D01*
X146398Y273031D02*
X147697D01*
X147047Y272382D02*
Y273681D01*
X161161Y279134D02*
X162461D01*
X161811Y278484D02*
Y279784D01*
X167264Y264370D02*
X168563D01*
X167913Y263720D02*
Y265020D01*
X152500Y258268D02*
X153799D01*
X153150Y257618D02*
Y258917D01*
X245807Y367520D02*
X247106D01*
X246457Y366870D02*
Y368169D01*
X231043Y373622D02*
X232343D01*
X231693Y372972D02*
Y374272D01*
X237146Y388386D02*
X238445D01*
X237795Y387736D02*
Y389035D01*
X251909Y382283D02*
X253209D01*
X252559Y381634D02*
Y382933D01*
X231043Y382283D02*
X232343D01*
X231693Y381634D02*
Y382933D01*
X245807Y388386D02*
X247106D01*
X246457Y387736D02*
Y389035D01*
X251909Y373622D02*
X253209D01*
X252559Y372972D02*
Y374272D01*
X237146Y367520D02*
X238445D01*
X237795Y366870D02*
Y368169D01*
X19429Y367520D02*
X20728D01*
X20079Y366870D02*
Y368169D01*
X4665Y373622D02*
X5965D01*
X5315Y372972D02*
Y374272D01*
X10768Y388386D02*
X12067D01*
X11417Y387736D02*
Y389035D01*
X25532Y382283D02*
X26831D01*
X26181Y381634D02*
Y382933D01*
X4665Y382283D02*
X5965D01*
X5315Y381634D02*
Y382933D01*
X19429Y388386D02*
X20728D01*
X20079Y387736D02*
Y389035D01*
X25532Y373622D02*
X26831D01*
X26181Y372972D02*
Y374272D01*
X10768Y367520D02*
X12067D01*
X11417Y366870D02*
Y368169D01*
X156496Y94488D02*
X158465D01*
X157480Y93504D02*
Y95472D01*
X10768Y217913D02*
X12067D01*
X11417Y217264D02*
Y218563D01*
X25532Y224016D02*
X26831D01*
X26181Y223366D02*
Y224665D01*
X19429Y238779D02*
X20728D01*
X20079Y238130D02*
Y239429D01*
X4665Y232677D02*
X5965D01*
X5315Y232028D02*
Y233327D01*
X25532Y232677D02*
X26831D01*
X26181Y232028D02*
Y233327D01*
X10768Y238779D02*
X12067D01*
X11417Y238130D02*
Y239429D01*
X4665Y224016D02*
X5965D01*
X5315Y223366D02*
Y224665D01*
X19429Y217913D02*
X20728D01*
X20079Y217264D02*
Y218563D01*
X66673Y24016D02*
X67972D01*
X67323Y23366D02*
Y24665D01*
X51910Y30118D02*
X53209D01*
X52559Y29469D02*
Y30768D01*
X58012Y44882D02*
X59311D01*
X58661Y44232D02*
Y45531D01*
X72776Y38780D02*
X74075D01*
X73425Y38130D02*
Y39429D01*
X51910Y38780D02*
X53209D01*
X52559Y38130D02*
Y39429D01*
X66673Y44882D02*
X67972D01*
X67323Y44232D02*
Y45531D01*
X72776Y30118D02*
X74075D01*
X73425Y29469D02*
Y30768D01*
X58012Y24016D02*
X59311D01*
X58661Y23366D02*
Y24665D01*
X187016Y364830D02*
X188984D01*
X188000Y363846D02*
Y365815D01*
X132016Y341000D02*
X133984D01*
X133000Y340016D02*
Y341984D01*
X72016Y360000D02*
X73984D01*
X73000Y359016D02*
Y360984D01*
X235016Y313000D02*
X236984D01*
X236000Y312016D02*
Y313984D01*
X101016Y353000D02*
X102984D01*
X102000Y352016D02*
Y353984D01*
X161161Y217913D02*
X162461D01*
X161811Y217264D02*
Y218563D01*
X146398Y224016D02*
X147697D01*
X147047Y223366D02*
Y224665D01*
X152500Y238779D02*
X153799D01*
X153150Y238130D02*
Y239429D01*
X167264Y232677D02*
X168563D01*
X167913Y232028D02*
Y233327D01*
X146398Y232677D02*
X147697D01*
X147047Y232028D02*
Y233327D01*
X161161Y238779D02*
X162461D01*
X161811Y238130D02*
Y239429D01*
X167264Y224016D02*
X168563D01*
X167913Y223366D02*
Y224665D01*
X152500Y217913D02*
X153799D01*
X153150Y217264D02*
Y218563D01*
X19429Y258268D02*
X20728D01*
X20079Y257618D02*
Y258917D01*
X4665Y264370D02*
X5965D01*
X5315Y263720D02*
Y265020D01*
X10768Y279134D02*
X12067D01*
X11417Y278484D02*
Y279784D01*
X25532Y273031D02*
X26831D01*
X26181Y272382D02*
Y273681D01*
X4665Y273031D02*
X5965D01*
X5315Y272382D02*
Y273681D01*
X19429Y279134D02*
X20728D01*
X20079Y278484D02*
Y279784D01*
X25532Y264370D02*
X26831D01*
X26181Y263720D02*
Y265020D01*
X10768Y258268D02*
X12067D01*
X11417Y257618D02*
Y258917D01*
M02*
