G04 Layer_Physical_Order=2*
G04 Layer_Color=16711680*
%FSLAX25Y25*%
%MOIN*%
G70*
G01*
G75*
%ADD10C,0.03937*%
%ADD11C,0.03150*%
%ADD12C,0.05906*%
%ADD13C,0.01969*%
%ADD14C,0.07874*%
%ADD15C,0.11811*%
%ADD16C,0.19685*%
%ADD17C,0.15748*%
%ADD18C,0.11811*%
%ADD19C,0.07500*%
%ADD20C,0.08000*%
%ADD21C,0.06500*%
%ADD22R,0.06299X0.06299*%
%ADD23C,0.07874*%
%ADD24C,0.13780*%
%ADD25C,0.07087*%
%ADD26R,0.05906X0.05906*%
%ADD27C,0.05906*%
%ADD28C,0.06299*%
%ADD29O,0.11811X0.07087*%
G04:AMPARAMS|DCode=30|XSize=62.99mil|YSize=70.87mil|CornerRadius=15.75mil|HoleSize=0mil|Usage=FLASHONLY|Rotation=180.000|XOffset=0mil|YOffset=0mil|HoleType=Round|Shape=RoundedRectangle|*
%AMROUNDEDRECTD30*
21,1,0.06299,0.03937,0,0,180.0*
21,1,0.03150,0.07087,0,0,180.0*
1,1,0.03150,-0.01575,0.01969*
1,1,0.03150,0.01575,0.01969*
1,1,0.03150,0.01575,-0.01969*
1,1,0.03150,-0.01575,-0.01969*
%
%ADD30ROUNDEDRECTD30*%
%ADD31O,0.06299X0.07087*%
%ADD32C,0.02598*%
%ADD33C,0.03150*%
%ADD34R,0.04134X0.05315*%
%ADD35R,0.06890X0.03937*%
%ADD36R,0.03150X0.03347*%
%ADD37R,0.06102X0.09252*%
%ADD38C,0.01575*%
%ADD39C,0.27559*%
%ADD40C,0.23622*%
%ADD41C,0.15748*%
%ADD42C,0.01181*%
%ADD43C,0.27559*%
G36*
X236726Y197648D02*
X237692Y197169D01*
X238601Y196588D01*
X239441Y195912D01*
X240203Y195150D01*
X240879Y194309D01*
X241460Y193401D01*
X241940Y192435D01*
X242126Y191929D01*
X242126Y191929D01*
X242126Y170276D01*
X242012Y169538D01*
X241554Y168118D01*
X240879Y166787D01*
X240003Y165579D01*
X238948Y164524D01*
X237740Y163648D01*
X236409Y162973D01*
X234989Y162516D01*
X234252Y162402D01*
X234252Y162402D01*
X216517D01*
X206085Y151970D01*
X205688Y151573D01*
X204820Y150860D01*
X203887Y150236D01*
X202896Y149707D01*
X201859Y149277D01*
X200784Y148951D01*
X199683Y148732D01*
X198565Y148622D01*
X198004Y148622D01*
X167323Y148622D01*
X166800Y148776D01*
X165801Y149212D01*
X164864Y149768D01*
X164003Y150437D01*
X163232Y151208D01*
X162563Y152068D01*
X162007Y153006D01*
X161571Y154005D01*
X161417Y154527D01*
X161417Y154528D01*
X161417Y189961D01*
X161417Y190736D01*
X161720Y192257D01*
X162313Y193690D01*
X163175Y194980D01*
X164272Y196077D01*
X165562Y196939D01*
X166995Y197532D01*
X168516Y197835D01*
X169291Y197835D01*
X169291Y197835D01*
X236221Y197835D01*
X236726Y197648D01*
D02*
G37*
G36*
X254153Y140478D02*
X254651Y139980D01*
X254921Y139329D01*
X254921Y138976D01*
X254921Y138976D01*
X254921Y92520D01*
X254921Y92128D01*
X254622Y91404D01*
X254068Y90851D01*
X253344Y90551D01*
X252953Y90551D01*
D01*
X252952D01*
X252953D01*
X245079Y84646D01*
X215936Y84646D01*
X215477Y84601D01*
X214629Y84249D01*
X213979Y83600D01*
X213628Y82751D01*
X213583Y82292D01*
Y82292D01*
X213313Y81309D01*
X212896Y79314D01*
X212644Y77291D01*
X212558Y75254D01*
X212640Y73218D01*
X212889Y71195D01*
X213303Y69199D01*
X213879Y67244D01*
X214227Y66286D01*
X214227Y66286D01*
X214763Y65706D01*
X215918Y64631D01*
X217173Y63675D01*
X218517Y62848D01*
X219936Y62158D01*
X221416Y61611D01*
X222943Y61213D01*
X224501Y60968D01*
X225288Y60904D01*
X225288D01*
X230200Y57935D01*
X234252Y51181D01*
X234276Y33441D01*
X234973Y32745D01*
X236067Y31107D01*
X236821Y29287D01*
X237205Y27355D01*
X237205Y26370D01*
X237205Y26370D01*
Y6890D01*
Y6599D01*
X237091Y6028D01*
X236869Y5491D01*
X236545Y5007D01*
X236134Y4596D01*
X235651Y4273D01*
X235113Y4050D01*
X234543Y3937D01*
X179961D01*
X179492Y3937D01*
X178572Y4120D01*
X177705Y4479D01*
X176924Y5000D01*
X176261Y5664D01*
X175739Y6444D01*
X175380Y7311D01*
X175197Y8231D01*
X175197Y8700D01*
X175197Y8701D01*
Y105315D01*
Y105994D01*
X175462Y107325D01*
X175981Y108579D01*
X176735Y109707D01*
X177695Y110667D01*
X178823Y111421D01*
X180077Y111940D01*
X181408Y112205D01*
X182087D01*
X216402Y112205D01*
X216783Y112137D01*
X217504Y111857D01*
X218156Y111441D01*
X218715Y110906D01*
X219158Y110272D01*
X219470Y109564D01*
X219637Y108809D01*
X219653Y108036D01*
X219586Y107655D01*
X219587Y107655D01*
X219587Y105420D01*
X219636Y105098D01*
X219827Y104475D01*
X220136Y103902D01*
X220550Y103400D01*
X221055Y102989D01*
X221630Y102684D01*
X222254Y102497D01*
X222902Y102436D01*
X223228Y102453D01*
X223228D01*
X232768Y102453D01*
X233396Y102483D01*
X234627Y102728D01*
X235787Y103209D01*
X236831Y103907D01*
X237719Y104795D01*
X238417Y105839D01*
X238897Y106999D01*
X239142Y108230D01*
X239173Y108858D01*
Y118110D01*
X239173Y119685D01*
X239154Y119877D01*
X239007Y120232D01*
X238736Y120503D01*
X238381Y120650D01*
X238189Y120669D01*
X233268Y125984D01*
X233034Y126218D01*
X232666Y126769D01*
X232413Y127380D01*
X232283Y128029D01*
Y128360D01*
Y128360D01*
Y138372D01*
Y138703D01*
X232413Y139352D01*
X232666Y139963D01*
X233034Y140514D01*
X233268Y140748D01*
X233268Y140748D01*
X253150Y140748D01*
X253502Y140748D01*
X254153Y140478D01*
D02*
G37*
G36*
X8647Y250234D02*
X9220Y250000D01*
X209000Y250000D01*
X209000Y250000D01*
X209650Y250190D01*
X210998Y250326D01*
X212348Y250214D01*
X213655Y249858D01*
X214876Y249269D01*
X215968Y248468D01*
X216897Y247481D01*
X217630Y246342D01*
X218142Y245088D01*
X218418Y243761D01*
X218447Y242407D01*
X218229Y241070D01*
X218000Y240432D01*
X218000Y228740D01*
X218000Y228740D01*
X218158Y227970D01*
X218271Y226400D01*
X218179Y224830D01*
X217882Y223285D01*
X217386Y221792D01*
X216699Y220376D01*
X215833Y219062D01*
X214804Y217873D01*
X213627Y216828D01*
X212325Y215946D01*
X210918Y215241D01*
X209432Y214725D01*
X208661Y214567D01*
X57950Y214241D01*
X57949Y214240D01*
X56535Y214119D01*
X53729Y213685D01*
X50974Y213001D01*
X48292Y212070D01*
X45705Y210902D01*
X43234Y209505D01*
X40898Y207891D01*
X38718Y206073D01*
X36711Y204065D01*
X34893Y201885D01*
X33279Y199550D01*
X31881Y197079D01*
X30713Y194491D01*
X29783Y191809D01*
X29098Y189054D01*
X28665Y186249D01*
X28543Y184834D01*
Y75008D01*
Y75008D01*
X28591Y74028D01*
X28974Y72105D01*
X29724Y70294D01*
X30813Y68664D01*
X31472Y67937D01*
X40354Y59055D01*
Y20810D01*
Y20118D01*
X40084Y18760D01*
X39554Y17480D01*
X38785Y16329D01*
X37805Y15349D01*
X36654Y14580D01*
X35374Y14050D01*
X34016Y13780D01*
X33323D01*
X3936Y13780D01*
X3936D01*
X3646Y13780D01*
X3075Y13893D01*
X2538Y14116D01*
X2054Y14439D01*
X1643Y14850D01*
X1320Y15334D01*
X1098Y15871D01*
X984Y16442D01*
X984Y16732D01*
X984Y241764D01*
X984Y241764D01*
X750Y242337D01*
X514Y243553D01*
X518Y244792D01*
X763Y246006D01*
X1240Y247150D01*
X1929Y248180D01*
X2805Y249056D01*
X3834Y249745D01*
X4978Y250221D01*
X6192Y250466D01*
X7431Y250470D01*
X8647Y250234D01*
D02*
G37*
G36*
X242126Y288386D02*
X242126Y266732D01*
X236220Y260827D01*
X188977D01*
X183071Y266732D01*
X183071Y288386D01*
X188977Y294291D01*
X236221D01*
X242126Y288386D01*
D02*
G37*
G36*
X118110Y290355D02*
X118110Y266732D01*
X112205Y260827D01*
X57087D01*
X51181Y266732D01*
X51181Y292323D01*
X55118Y296260D01*
X98426Y296260D01*
X112205D01*
X118110Y290355D01*
D02*
G37*
G36*
X93743Y207677D02*
X116142Y207677D01*
X122047Y201772D01*
X122047Y178150D01*
X122047Y178150D01*
X121046Y176072D01*
X118702Y172098D01*
X116033Y168336D01*
X113057Y164812D01*
X109795Y161550D01*
X106270Y158573D01*
X102508Y155904D01*
X98535Y153560D01*
X96457Y152559D01*
X40534D01*
X39220Y152821D01*
X37981Y153334D01*
X36866Y154078D01*
X36393Y154552D01*
Y154552D01*
X35729Y155216D01*
X34611Y156723D01*
X33727Y158377D01*
X33095Y160144D01*
X32729Y161984D01*
X32637Y163858D01*
X32821Y165725D01*
X33277Y167545D01*
X33995Y169278D01*
X34959Y170887D01*
X36149Y172337D01*
X37540Y173597D01*
X39100Y174640D01*
X40796Y175442D01*
X42591Y175986D01*
X44447Y176262D01*
X45385Y176262D01*
X46652Y176385D01*
X49165Y176800D01*
X51631Y177436D01*
X54030Y178289D01*
X56344Y179351D01*
X58556Y180614D01*
X60646Y182068D01*
X62599Y183702D01*
X63519Y184582D01*
X81574Y202637D01*
D01*
X81574Y202637D01*
X81574Y202637D01*
X82171Y203234D01*
X83478Y204307D01*
X84884Y205247D01*
X86376Y206044D01*
X87938Y206691D01*
X89556Y207182D01*
X91215Y207511D01*
X92897Y207677D01*
X93743Y207677D01*
D02*
G37*
%LPC*%
G36*
X198004Y148622D02*
X198004D01*
D01*
X198004D01*
D02*
G37*
%LPD*%
D10*
X107848Y372047D02*
Y381693D01*
X37402Y85598D02*
X62992Y60008D01*
X157480Y94488D02*
Y119095D01*
X155512Y121063D02*
X157480Y119095D01*
X155512Y121063D02*
Y126772D01*
Y138976D02*
X165354D01*
Y126772D02*
X175197D01*
X57087Y162992D02*
X58071Y163976D01*
X57087Y140945D02*
Y162992D01*
X37402Y140945D02*
X47244D01*
X117047Y78701D02*
X117126Y78622D01*
X94488Y78701D02*
X117047D01*
X248937Y78622D02*
X250000Y79685D01*
X227362Y78622D02*
X248937D01*
X172441Y163976D02*
X175197Y161221D01*
Y138976D02*
Y161221D01*
X91536Y119685D02*
X102363Y108858D01*
X91536Y119685D02*
Y120669D01*
X119095Y312007D02*
Y323095D01*
X107848Y372047D02*
X127000Y352895D01*
X119095Y323095D02*
X127000Y331000D01*
Y352895D01*
X37402Y85598D02*
Y128740D01*
D11*
X126155Y400000D02*
X196653D01*
X117848Y391693D02*
X126155Y400000D01*
X196653D02*
X219360Y377293D01*
X220343Y137335D02*
X232024Y149016D01*
X47244Y128740D02*
X57087D01*
X220343Y137335D02*
X220473Y137205D01*
X232024Y149016D02*
X232284D01*
X91536Y138189D02*
X102363Y149016D01*
X91536Y137205D02*
Y138189D01*
X232284Y149016D02*
X233964D01*
X250000Y165052D01*
Y295205D01*
X236000Y309205D02*
X250000Y295205D01*
X236000Y309205D02*
Y313000D01*
D12*
X127848Y381693D02*
Y388221D01*
Y369672D02*
Y381693D01*
X186573Y363403D02*
X188000Y364830D01*
X220473Y120669D02*
X232284Y108858D01*
X127848Y369672D02*
X134116Y363403D01*
X186573D01*
D13*
X89000Y365425D02*
Y389157D01*
X91536Y391693D01*
X97848D01*
X168898Y341535D02*
X190059D01*
X68800Y341535D02*
X89961D01*
X91536Y339567D02*
X119095Y312007D01*
X91536Y339567D02*
Y341535D01*
X133859Y324803D02*
X201772D01*
X218504Y341535D01*
X119095Y310039D02*
X133859Y324803D01*
X174213Y349410D02*
X249016D01*
X166339Y341535D02*
X174213Y349410D01*
X165804Y341000D02*
X166339Y341535D01*
X133000Y341000D02*
X165804D01*
X65480Y367520D02*
X73000Y360000D01*
X57346Y367520D02*
X65480D01*
X39508Y367539D02*
X50634D01*
X50654Y367520D01*
X190709Y367539D02*
X203819D01*
X188000Y364830D02*
X190709Y367539D01*
X221457Y340185D02*
Y341535D01*
Y340185D02*
X249016Y312626D01*
Y310039D02*
Y312626D01*
X197737Y341535D02*
X218504D01*
X221457D01*
X89000Y365425D02*
X101425Y353000D01*
X102000D01*
D14*
X221457Y17717D02*
X227362Y23622D01*
X182284Y93898D02*
X189961Y86221D01*
Y56103D02*
X192126Y53937D01*
X222441Y23622D02*
X227362D01*
D15*
X230315Y170276D02*
Y189961D01*
X94488Y19685D02*
X98425Y15748D01*
X62992Y53937D02*
X72736Y44193D01*
X94488Y22441D01*
X221457Y9843D02*
Y17717D01*
X94488Y19685D02*
Y22441D01*
X98425Y9843D02*
Y15748D01*
X230315Y268701D02*
Y270669D01*
X112205Y128937D02*
X140000Y101142D01*
Y74567D02*
Y101142D01*
Y74567D02*
X152756Y61811D01*
Y34174D02*
Y61811D01*
X128425Y9843D02*
X152756Y34174D01*
X117126Y21142D02*
Y23622D01*
Y21142D02*
X128425Y9843D01*
X106300Y270669D02*
Y272539D01*
Y290354D01*
X230315Y270669D02*
Y288386D01*
D16*
X90473Y163976D02*
X106300Y179803D01*
X189961Y56103D02*
Y86221D01*
X62992Y34449D02*
Y53937D01*
X58071Y163976D02*
X90473D01*
X42520D02*
X58071D01*
X192126Y53937D02*
X222441Y23622D01*
X215945Y186024D02*
X228346D01*
X193898Y163976D02*
X215945Y186024D01*
X193898Y276575D02*
X224410D01*
X172441Y163976D02*
X193898D01*
X102363Y274606D02*
X106300Y270669D01*
X62993Y274606D02*
X102363D01*
X224410Y276575D02*
X230315Y270669D01*
X62992Y53937D02*
Y60008D01*
X106300Y179803D02*
Y185039D01*
Y196457D01*
D17*
X64961Y233268D02*
D03*
Y276575D02*
D03*
X192914D02*
D03*
Y233268D02*
D03*
X23315Y38632D02*
D03*
X62685D02*
D03*
D18*
X152756Y61811D02*
D03*
X192126D02*
D03*
X23622D02*
D03*
X62992D02*
D03*
D19*
X117126Y23622D02*
D03*
Y78622D02*
D03*
X227362Y23622D02*
D03*
Y78622D02*
D03*
D20*
X94488Y18701D02*
D03*
Y78701D02*
D03*
X250000Y19685D02*
D03*
Y79685D02*
D03*
D21*
X98425Y9843D02*
D03*
X128425D02*
D03*
X251457Y8858D02*
D03*
X221457D02*
D03*
D22*
X219000Y367293D02*
D03*
X39508Y367539D02*
D03*
D23*
X8859Y310039D02*
D03*
X119095D02*
D03*
X8859Y349410D02*
D03*
X119095D02*
D03*
X159449Y302165D02*
D03*
X228347D02*
D03*
X166339Y341535D02*
D03*
X221457D02*
D03*
X91536D02*
D03*
X36418D02*
D03*
X98426Y302165D02*
D03*
X29528D02*
D03*
X138780Y310039D02*
D03*
X249016D02*
D03*
X138780Y349410D02*
D03*
X249016D02*
D03*
D24*
X182284Y93898D02*
D03*
X242126Y128937D02*
D03*
X172441Y163976D02*
D03*
X52363Y93898D02*
D03*
X112205Y128937D02*
D03*
X42520Y163976D02*
D03*
D25*
X232284Y149016D02*
D03*
Y108858D02*
D03*
X102363Y149016D02*
D03*
Y108858D02*
D03*
D26*
X97848Y391693D02*
D03*
D27*
Y381693D02*
D03*
X107848Y391693D02*
D03*
Y381693D02*
D03*
X117848Y391693D02*
D03*
Y381693D02*
D03*
X127848Y391693D02*
D03*
Y381693D02*
D03*
X137848Y391693D02*
D03*
Y381693D02*
D03*
X147848Y391693D02*
D03*
Y381693D02*
D03*
X157848Y391693D02*
D03*
Y381693D02*
D03*
X167848Y391693D02*
D03*
Y381693D02*
D03*
D28*
X219000Y377293D02*
D03*
X39508Y377539D02*
D03*
D29*
X232283Y165354D02*
D03*
Y291339D02*
D03*
Y185039D02*
D03*
Y271654D02*
D03*
Y196850D02*
D03*
Y259842D02*
D03*
X106300Y165354D02*
D03*
Y291339D02*
D03*
Y185039D02*
D03*
Y271654D02*
D03*
Y196850D02*
D03*
Y259842D02*
D03*
D30*
X157848Y391693D02*
D03*
X97848D02*
D03*
D31*
X167848D02*
D03*
X157848Y381693D02*
D03*
X167848D02*
D03*
X127848D02*
D03*
Y391693D02*
D03*
X117848Y381693D02*
D03*
Y391693D02*
D03*
X97848Y381693D02*
D03*
X107848Y391693D02*
D03*
Y381693D02*
D03*
D32*
X161811Y258268D02*
D03*
X147047Y264370D02*
D03*
X153150Y279134D02*
D03*
X167913Y273031D02*
D03*
X147047D02*
D03*
X161811Y279134D02*
D03*
X167913Y264370D02*
D03*
X153150Y258268D02*
D03*
X246457Y367520D02*
D03*
X231693Y373622D02*
D03*
X237795Y388386D02*
D03*
X252559Y382283D02*
D03*
X231693D02*
D03*
X246457Y388386D02*
D03*
X252559Y373622D02*
D03*
X237795Y367520D02*
D03*
X20079D02*
D03*
X5315Y373622D02*
D03*
X11417Y388386D02*
D03*
X26181Y382283D02*
D03*
X5315D02*
D03*
X20079Y388386D02*
D03*
X26181Y373622D02*
D03*
X11417Y367520D02*
D03*
Y217913D02*
D03*
X26181Y224016D02*
D03*
X20079Y238779D02*
D03*
X5315Y232677D02*
D03*
X26181D02*
D03*
X11417Y238779D02*
D03*
X5315Y224016D02*
D03*
X20079Y217913D02*
D03*
X67323Y24016D02*
D03*
X52559Y30118D02*
D03*
X58661Y44882D02*
D03*
X73425Y38780D02*
D03*
X52559D02*
D03*
X67323Y44882D02*
D03*
X73425Y30118D02*
D03*
X58661Y24016D02*
D03*
X161811Y217913D02*
D03*
X147047Y224016D02*
D03*
X153150Y238779D02*
D03*
X167913Y232677D02*
D03*
X147047D02*
D03*
X161811Y238779D02*
D03*
X167913Y224016D02*
D03*
X153150Y217913D02*
D03*
X20079Y258268D02*
D03*
X5315Y264370D02*
D03*
X11417Y279134D02*
D03*
X26181Y273031D02*
D03*
X5315D02*
D03*
X20079Y279134D02*
D03*
X26181Y264370D02*
D03*
X11417Y258268D02*
D03*
D33*
X157480Y94488D02*
D03*
X188000Y364830D02*
D03*
X133000Y341000D02*
D03*
X73000Y360000D02*
D03*
X236000Y313000D02*
D03*
X102000Y353000D02*
D03*
D34*
X68800Y341535D02*
D03*
X61122D02*
D03*
X197737Y341535D02*
D03*
X190059D02*
D03*
D35*
X175197Y126772D02*
D03*
Y138976D02*
D03*
X165354D02*
D03*
Y126772D02*
D03*
X155512D02*
D03*
Y138976D02*
D03*
X57087Y128740D02*
D03*
Y140945D02*
D03*
X47244D02*
D03*
Y128740D02*
D03*
X37402D02*
D03*
Y140945D02*
D03*
D36*
X210512Y367539D02*
D03*
X203819D02*
D03*
X50654Y367520D02*
D03*
X57346D02*
D03*
D37*
X220473Y120669D02*
D03*
Y137205D02*
D03*
X91536Y120669D02*
D03*
Y137205D02*
D03*
D38*
X97848Y372047D02*
Y381693D01*
X39961Y341535D02*
X61122D01*
X36418Y341535D02*
X44292Y349410D01*
X97848Y372047D02*
X119095Y350800D01*
X44292Y349410D02*
X119095D01*
Y350800D01*
D39*
X64961Y233268D02*
X192914D01*
X193898D01*
D40*
X14370Y63189D02*
Y149606D01*
Y63189D02*
X23622Y53937D01*
D41*
X247138Y102453D02*
Y123925D01*
X238583Y93898D02*
X247138Y102453D01*
X182284Y93898D02*
X238583D01*
X242126Y128937D02*
X247138Y123925D01*
D42*
X119095Y310039D02*
Y312007D01*
X210512Y367539D02*
X218754D01*
X219000Y367293D01*
D43*
X157480Y268701D02*
D03*
X242126Y377953D02*
D03*
X15748D02*
D03*
Y228346D02*
D03*
X62992Y34449D02*
D03*
X157480Y228346D02*
D03*
X15748Y268701D02*
D03*
M02*
