G04 Layer_Color=2752767*
%FSLAX25Y25*%
%MOIN*%
G70*
G01*
G75*
%ADD76C,0.00200*%
%ADD77C,0.00267*%
%ADD78C,0.00133*%
D76*
X156680Y267901D02*
Y269501D01*
X158280D01*
Y267901D01*
X156680D01*
X241326Y377153D02*
Y378753D01*
X242926D01*
Y377153D01*
X241326D01*
X14948D02*
Y378753D01*
X16548D01*
Y377153D01*
X14948D01*
X152756Y61011D02*
X151956Y62611D01*
X153556D01*
X152756Y61011D01*
X192126D02*
X191326Y62611D01*
X192926D01*
X192126Y61011D01*
X117126Y22822D02*
X117526Y23222D01*
X117926D01*
X117526Y23622D01*
X117926Y24022D01*
X117526D01*
X117126Y24422D01*
X116726Y24022D01*
X116326D01*
X116726Y23622D01*
X116326Y23222D01*
X116726D01*
X117126Y22822D01*
Y77822D02*
X117526Y78222D01*
X117926D01*
X117526Y78622D01*
X117926Y79022D01*
X117526D01*
X117126Y79422D01*
X116726Y79022D01*
X116326D01*
X116726Y78622D01*
X116326Y78222D01*
X116726D01*
X117126Y77822D01*
X94488Y17901D02*
X94888Y18301D01*
X95288D01*
X94888Y18701D01*
X95288Y19101D01*
X94888D01*
X94488Y19501D01*
X94088Y19101D01*
X93688D01*
X94088Y18701D01*
X93688Y18301D01*
X94088D01*
X94488Y17901D01*
Y77901D02*
X94888Y78301D01*
X95288D01*
X94888Y78701D01*
X95288Y79101D01*
X94888D01*
X94488Y79501D01*
X94088Y79101D01*
X93688D01*
X94088Y78701D01*
X93688Y78301D01*
X94088D01*
X94488Y77901D01*
X250000Y18885D02*
X250400Y19285D01*
X250800D01*
X250400Y19685D01*
X250800Y20085D01*
X250400D01*
X250000Y20485D01*
X249600Y20085D01*
X249200D01*
X249600Y19685D01*
X249200Y19285D01*
X249600D01*
X250000Y18885D01*
Y78885D02*
X250400Y79285D01*
X250800D01*
X250400Y79685D01*
X250800Y80085D01*
X250400D01*
X250000Y80485D01*
X249600Y80085D01*
X249200D01*
X249600Y79685D01*
X249200Y79285D01*
X249600D01*
X250000Y78885D01*
X227362Y22822D02*
X227762Y23222D01*
X228162D01*
X227762Y23622D01*
X228162Y24022D01*
X227762D01*
X227362Y24422D01*
X226962Y24022D01*
X226562D01*
X226962Y23622D01*
X226562Y23222D01*
X226962D01*
X227362Y22822D01*
Y77822D02*
X227762Y78222D01*
X228162D01*
X227762Y78622D01*
X228162Y79022D01*
X227762D01*
X227362Y79422D01*
X226962Y79022D01*
X226562D01*
X226962Y78622D01*
X226562Y78222D01*
X226962D01*
X227362Y77822D01*
X97625Y9042D02*
X98025Y9843D01*
X97625Y10643D01*
X98425Y10243D01*
X99225Y10643D01*
X98825Y9843D01*
X99225Y9042D01*
X98425Y9443D01*
X97625Y9042D01*
X127625D02*
X128025Y9843D01*
X127625Y10643D01*
X128425Y10243D01*
X129225Y10643D01*
X128825Y9843D01*
X129225Y9042D01*
X128425Y9443D01*
X127625Y9042D01*
X250657Y8058D02*
X251057Y8858D01*
X250657Y9658D01*
X251457Y9258D01*
X252257Y9658D01*
X251857Y8858D01*
X252257Y8058D01*
X251457Y8458D01*
X250657Y8058D01*
X220657D02*
X221057Y8858D01*
X220657Y9658D01*
X221457Y9258D01*
X222257Y9658D01*
X221857Y8858D01*
X222257Y8058D01*
X221457Y8458D01*
X220657Y8058D01*
X23622Y61011D02*
X22822Y62611D01*
X24422D01*
X23622Y61011D01*
X62992D02*
X62192Y62611D01*
X63792D01*
X62992Y61011D01*
X218600Y366893D02*
Y366493D01*
X219400D01*
Y366893D01*
X219800D01*
Y367693D01*
X219400D01*
Y368093D01*
X218600D01*
Y367693D01*
X218200D01*
Y366893D01*
X218600D01*
X39108Y367139D02*
Y366739D01*
X39908D01*
Y367139D01*
X40308D01*
Y367939D01*
X39908D01*
Y368339D01*
X39108D01*
Y367939D01*
X38708D01*
Y367139D01*
X39108D01*
X8059Y309239D02*
X8459D01*
X8859Y309639D01*
X9259Y309239D01*
X9659D01*
Y309639D01*
X9259Y310039D01*
X9659Y310439D01*
Y310839D01*
X9259D01*
X8859Y310439D01*
X8459Y310839D01*
X8059D01*
Y310439D01*
X8459Y310039D01*
X8059Y309639D01*
Y309239D01*
X118295D02*
X118695D01*
X119095Y309639D01*
X119495Y309239D01*
X119895D01*
Y309639D01*
X119495Y310039D01*
X119895Y310439D01*
Y310839D01*
X119495D01*
X119095Y310439D01*
X118695Y310839D01*
X118295D01*
Y310439D01*
X118695Y310039D01*
X118295Y309639D01*
Y309239D01*
X8059Y348609D02*
X8459D01*
X8859Y349009D01*
X9259Y348609D01*
X9659D01*
Y349009D01*
X9259Y349410D01*
X9659Y349810D01*
Y350209D01*
X9259D01*
X8859Y349810D01*
X8459Y350209D01*
X8059D01*
Y349810D01*
X8459Y349410D01*
X8059Y349009D01*
Y348609D01*
X118295D02*
X118695D01*
X119095Y349009D01*
X119495Y348609D01*
X119895D01*
Y349009D01*
X119495Y349410D01*
X119895Y349810D01*
Y350209D01*
X119495D01*
X119095Y349810D01*
X118695Y350209D01*
X118295D01*
Y349810D01*
X118695Y349410D01*
X118295Y349009D01*
Y348609D01*
X158649Y301365D02*
X159049D01*
X159449Y301765D01*
X159849Y301365D01*
X160249D01*
Y301765D01*
X159849Y302165D01*
X160249Y302565D01*
Y302965D01*
X159849D01*
X159449Y302565D01*
X159049Y302965D01*
X158649D01*
Y302565D01*
X159049Y302165D01*
X158649Y301765D01*
Y301365D01*
X227547D02*
X227947D01*
X228347Y301765D01*
X228747Y301365D01*
X229147D01*
Y301765D01*
X228747Y302165D01*
X229147Y302565D01*
Y302965D01*
X228747D01*
X228347Y302565D01*
X227947Y302965D01*
X227547D01*
Y302565D01*
X227947Y302165D01*
X227547Y301765D01*
Y301365D01*
X165539Y340735D02*
X165939D01*
X166339Y341135D01*
X166739Y340735D01*
X167139D01*
Y341135D01*
X166739Y341535D01*
X167139Y341935D01*
Y342335D01*
X166739D01*
X166339Y341935D01*
X165939Y342335D01*
X165539D01*
Y341935D01*
X165939Y341535D01*
X165539Y341135D01*
Y340735D01*
X220657D02*
X221057D01*
X221457Y341135D01*
X221857Y340735D01*
X222257D01*
Y341135D01*
X221857Y341535D01*
X222257Y341935D01*
Y342335D01*
X221857D01*
X221457Y341935D01*
X221057Y342335D01*
X220657D01*
Y341935D01*
X221057Y341535D01*
X220657Y341135D01*
Y340735D01*
X90736D02*
X91136D01*
X91536Y341135D01*
X91936Y340735D01*
X92336D01*
Y341135D01*
X91936Y341535D01*
X92336Y341935D01*
Y342335D01*
X91936D01*
X91536Y341935D01*
X91136Y342335D01*
X90736D01*
Y341935D01*
X91136Y341535D01*
X90736Y341135D01*
Y340735D01*
X35618D02*
X36018D01*
X36418Y341135D01*
X36818Y340735D01*
X37218D01*
Y341135D01*
X36818Y341535D01*
X37218Y341935D01*
Y342335D01*
X36818D01*
X36418Y341935D01*
X36018Y342335D01*
X35618D01*
Y341935D01*
X36018Y341535D01*
X35618Y341135D01*
Y340735D01*
X97626Y301365D02*
X98026D01*
X98426Y301765D01*
X98826Y301365D01*
X99226D01*
Y301765D01*
X98826Y302165D01*
X99226Y302565D01*
Y302965D01*
X98826D01*
X98426Y302565D01*
X98026Y302965D01*
X97626D01*
Y302565D01*
X98026Y302165D01*
X97626Y301765D01*
Y301365D01*
X28728D02*
X29128D01*
X29528Y301765D01*
X29928Y301365D01*
X30328D01*
Y301765D01*
X29928Y302165D01*
X30328Y302565D01*
Y302965D01*
X29928D01*
X29528Y302565D01*
X29128Y302965D01*
X28728D01*
Y302565D01*
X29128Y302165D01*
X28728Y301765D01*
Y301365D01*
X14948Y228346D02*
X15748Y229147D01*
X16548Y228346D01*
X15748Y227547D01*
X14948Y228346D01*
X181484Y93098D02*
Y94698D01*
X183084D01*
Y93098D01*
X181484D01*
X181884Y93498D02*
Y94298D01*
X182684D01*
Y93498D01*
X181884D01*
X241326Y128137D02*
Y129737D01*
X242926D01*
Y128137D01*
X241326D01*
X241726Y128537D02*
Y129337D01*
X242526D01*
Y128537D01*
X241726D01*
X171641Y163176D02*
Y164776D01*
X173241D01*
Y163176D01*
X171641D01*
X172041Y163576D02*
Y164376D01*
X172841D01*
Y163576D01*
X172041D01*
X51563Y93098D02*
Y94698D01*
X53163D01*
Y93098D01*
X51563D01*
X51963Y93498D02*
Y94298D01*
X52763D01*
Y93498D01*
X51963D01*
X111405Y128137D02*
Y129737D01*
X113005D01*
Y128137D01*
X111405D01*
X111805Y128537D02*
Y129337D01*
X112605D01*
Y128537D01*
X111805D01*
X41720Y163176D02*
Y164776D01*
X43320D01*
Y163176D01*
X41720D01*
X42120Y163576D02*
Y164376D01*
X42920D01*
Y163576D01*
X42120D01*
X62192Y34449D02*
X62992Y35249D01*
X63792Y34449D01*
X62992Y33649D01*
X62192Y34449D01*
X97448Y391293D02*
Y390893D01*
X98248D01*
Y391293D01*
X98648D01*
Y392093D01*
X98248D01*
Y392493D01*
X97448D01*
Y392093D01*
X97048D01*
Y391293D01*
X97448D01*
Y381293D02*
Y380893D01*
X98248D01*
Y381293D01*
X98648D01*
Y382093D01*
X98248D01*
Y382493D01*
X97448D01*
Y382093D01*
X97048D01*
Y381293D01*
X97448D01*
X107448Y391293D02*
Y390893D01*
X108248D01*
Y391293D01*
X108648D01*
Y392093D01*
X108248D01*
Y392493D01*
X107448D01*
Y392093D01*
X107048D01*
Y391293D01*
X107448D01*
Y381293D02*
Y380893D01*
X108248D01*
Y381293D01*
X108648D01*
Y382093D01*
X108248D01*
Y382493D01*
X107448D01*
Y382093D01*
X107048D01*
Y381293D01*
X107448D01*
X117448Y391293D02*
Y390893D01*
X118248D01*
Y391293D01*
X118648D01*
Y392093D01*
X118248D01*
Y392493D01*
X117448D01*
Y392093D01*
X117048D01*
Y391293D01*
X117448D01*
Y381293D02*
Y380893D01*
X118248D01*
Y381293D01*
X118648D01*
Y382093D01*
X118248D01*
Y382493D01*
X117448D01*
Y382093D01*
X117048D01*
Y381293D01*
X117448D01*
X127448Y391293D02*
Y390893D01*
X128248D01*
Y391293D01*
X128648D01*
Y392093D01*
X128248D01*
Y392493D01*
X127448D01*
Y392093D01*
X127048D01*
Y391293D01*
X127448D01*
Y381293D02*
Y380893D01*
X128248D01*
Y381293D01*
X128648D01*
Y382093D01*
X128248D01*
Y382493D01*
X127448D01*
Y382093D01*
X127048D01*
Y381293D01*
X127448D01*
X137448Y391293D02*
Y390893D01*
X138248D01*
Y391293D01*
X138648D01*
Y392093D01*
X138248D01*
Y392493D01*
X137448D01*
Y392093D01*
X137048D01*
Y391293D01*
X137448D01*
Y381293D02*
Y380893D01*
X138248D01*
Y381293D01*
X138648D01*
Y382093D01*
X138248D01*
Y382493D01*
X137448D01*
Y382093D01*
X137048D01*
Y381293D01*
X137448D01*
X147448Y391293D02*
Y390893D01*
X148248D01*
Y391293D01*
X148648D01*
Y392093D01*
X148248D01*
Y392493D01*
X147448D01*
Y392093D01*
X147048D01*
Y391293D01*
X147448D01*
Y381293D02*
Y380893D01*
X148248D01*
Y381293D01*
X148648D01*
Y382093D01*
X148248D01*
Y382493D01*
X147448D01*
Y382093D01*
X147048D01*
Y381293D01*
X147448D01*
X157448Y391293D02*
Y390893D01*
X158248D01*
Y391293D01*
X158648D01*
Y392093D01*
X158248D01*
Y392493D01*
X157448D01*
Y392093D01*
X157048D01*
Y391293D01*
X157448D01*
Y381293D02*
Y380893D01*
X158248D01*
Y381293D01*
X158648D01*
Y382093D01*
X158248D01*
Y382493D01*
X157448D01*
Y382093D01*
X157048D01*
Y381293D01*
X157448D01*
X167448Y391293D02*
Y390893D01*
X168248D01*
Y391293D01*
X168648D01*
Y392093D01*
X168248D01*
Y392493D01*
X167448D01*
Y392093D01*
X167048D01*
Y391293D01*
X167448D01*
Y381293D02*
Y380893D01*
X168248D01*
Y381293D01*
X168648D01*
Y382093D01*
X168248D01*
Y382493D01*
X167448D01*
Y382093D01*
X167048D01*
Y381293D01*
X167448D01*
X137980Y309239D02*
X138380D01*
X138780Y309639D01*
X139180Y309239D01*
X139580D01*
Y309639D01*
X139180Y310039D01*
X139580Y310439D01*
Y310839D01*
X139180D01*
X138780Y310439D01*
X138380Y310839D01*
X137980D01*
Y310439D01*
X138380Y310039D01*
X137980Y309639D01*
Y309239D01*
X248216D02*
X248616D01*
X249016Y309639D01*
X249416Y309239D01*
X249816D01*
Y309639D01*
X249416Y310039D01*
X249816Y310439D01*
Y310839D01*
X249416D01*
X249016Y310439D01*
X248616Y310839D01*
X248216D01*
Y310439D01*
X248616Y310039D01*
X248216Y309639D01*
Y309239D01*
X137980Y348609D02*
X138380D01*
X138780Y349009D01*
X139180Y348609D01*
X139580D01*
Y349009D01*
X139180Y349410D01*
X139580Y349810D01*
Y350209D01*
X139180D01*
X138780Y349810D01*
X138380Y350209D01*
X137980D01*
Y349810D01*
X138380Y349410D01*
X137980Y349009D01*
Y348609D01*
X248216D02*
X248616D01*
X249016Y349009D01*
X249416Y348609D01*
X249816D01*
Y349009D01*
X249416Y349410D01*
X249816Y349810D01*
Y350209D01*
X249416D01*
X249016Y349810D01*
X248616Y350209D01*
X248216D01*
Y349810D01*
X248616Y349410D01*
X248216Y349009D01*
Y348609D01*
X218600Y376893D02*
Y376493D01*
X219400D01*
Y376893D01*
X219800D01*
Y377693D01*
X219400D01*
Y378093D01*
X218600D01*
Y377693D01*
X218200D01*
Y376893D01*
X218600D01*
X39108Y377139D02*
Y376739D01*
X39908D01*
Y377139D01*
X40308D01*
Y377939D01*
X39908D01*
Y378339D01*
X39108D01*
Y377939D01*
X38708D01*
Y377139D01*
X39108D01*
X22515Y37832D02*
Y39432D01*
X24115D01*
Y37832D01*
X22515D01*
X22915Y38232D02*
Y39032D01*
X23715D01*
Y38232D01*
X22915D01*
X61885Y37832D02*
Y39432D01*
X63485D01*
Y37832D01*
X61885D01*
X62285Y38232D02*
Y39032D01*
X63085D01*
Y38232D01*
X62285D01*
X232283Y164554D02*
X231484Y166154D01*
X233084D01*
X232283Y164554D01*
Y164954D02*
X231884Y165754D01*
X232683D01*
X232283Y164954D01*
Y290539D02*
X231484Y292139D01*
X233084D01*
X232283Y290539D01*
Y290939D02*
X231884Y291739D01*
X232683D01*
X232283Y290939D01*
Y184239D02*
X231484Y185839D01*
X233084D01*
X232283Y184239D01*
Y184639D02*
X231884Y185439D01*
X232683D01*
X232283Y184639D01*
Y270853D02*
X231484Y272453D01*
X233084D01*
X232283Y270853D01*
Y271253D02*
X231884Y272054D01*
X232683D01*
X232283Y271253D01*
Y196050D02*
X231484Y197650D01*
X233084D01*
X232283Y196050D01*
Y196450D02*
X231884Y197250D01*
X232683D01*
X232283Y196450D01*
Y259043D02*
X231484Y260643D01*
X233084D01*
X232283Y259043D01*
Y259442D02*
X231884Y260243D01*
X232683D01*
X232283Y259442D01*
X106300Y164554D02*
X105500Y166154D01*
X107100D01*
X106300Y164554D01*
Y164954D02*
X105900Y165754D01*
X106700D01*
X106300Y164954D01*
Y290539D02*
X105500Y292139D01*
X107100D01*
X106300Y290539D01*
Y290939D02*
X105900Y291739D01*
X106700D01*
X106300Y290939D01*
Y184239D02*
X105500Y185839D01*
X107100D01*
X106300Y184239D01*
Y184639D02*
X105900Y185439D01*
X106700D01*
X106300Y184639D01*
Y270853D02*
X105500Y272453D01*
X107100D01*
X106300Y270853D01*
Y271253D02*
X105900Y272054D01*
X106700D01*
X106300Y271253D01*
Y196050D02*
X105500Y197650D01*
X107100D01*
X106300Y196050D01*
Y196450D02*
X105900Y197250D01*
X106700D01*
X106300Y196450D01*
Y259043D02*
X105500Y260643D01*
X107100D01*
X106300Y259043D01*
Y259442D02*
X105900Y260243D01*
X106700D01*
X106300Y259442D01*
X156680Y228346D02*
X157480Y229147D01*
X158280Y228346D01*
X157480Y227547D01*
X156680Y228346D01*
X14948Y268701D02*
X15748Y269501D01*
X16548Y268701D01*
X15748Y267901D01*
X14948Y268701D01*
X161811Y257468D02*
X162211Y257868D01*
X162611D01*
X162211Y258268D01*
X162611Y258668D01*
X162211D01*
X161811Y259068D01*
X161411Y258668D01*
X161011D01*
X161411Y258268D01*
X161011Y257868D01*
X161411D01*
X161811Y257468D01*
Y257868D02*
X162011Y258068D01*
X162211D01*
X162011Y258268D01*
X162211Y258468D01*
X162011D01*
X161811Y258668D01*
X161611Y258468D01*
X161411D01*
X161611Y258268D01*
X161411Y258068D01*
X161611D01*
X161811Y257868D01*
X147047Y263570D02*
X147447Y263970D01*
X147847D01*
X147447Y264370D01*
X147847Y264770D01*
X147447D01*
X147047Y265170D01*
X146647Y264770D01*
X146247D01*
X146647Y264370D01*
X146247Y263970D01*
X146647D01*
X147047Y263570D01*
Y263970D02*
X147247Y264170D01*
X147447D01*
X147247Y264370D01*
X147447Y264570D01*
X147247D01*
X147047Y264770D01*
X146847Y264570D01*
X146647D01*
X146847Y264370D01*
X146647Y264170D01*
X146847D01*
X147047Y263970D01*
X153150Y278334D02*
X153550Y278734D01*
X153950D01*
X153550Y279134D01*
X153950Y279534D01*
X153550D01*
X153150Y279934D01*
X152750Y279534D01*
X152350D01*
X152750Y279134D01*
X152350Y278734D01*
X152750D01*
X153150Y278334D01*
Y278734D02*
X153350Y278934D01*
X153550D01*
X153350Y279134D01*
X153550Y279334D01*
X153350D01*
X153150Y279534D01*
X152950Y279334D01*
X152750D01*
X152950Y279134D01*
X152750Y278934D01*
X152950D01*
X153150Y278734D01*
X167913Y272232D02*
X168313Y272632D01*
X168713D01*
X168313Y273031D01*
X168713Y273431D01*
X168313D01*
X167913Y273832D01*
X167513Y273431D01*
X167113D01*
X167513Y273031D01*
X167113Y272632D01*
X167513D01*
X167913Y272232D01*
Y272632D02*
X168113Y272832D01*
X168313D01*
X168113Y273031D01*
X168313Y273232D01*
X168113D01*
X167913Y273431D01*
X167713Y273232D01*
X167513D01*
X167713Y273031D01*
X167513Y272832D01*
X167713D01*
X167913Y272632D01*
X147047Y272232D02*
X147447Y272632D01*
X147847D01*
X147447Y273031D01*
X147847Y273431D01*
X147447D01*
X147047Y273832D01*
X146647Y273431D01*
X146247D01*
X146647Y273031D01*
X146247Y272632D01*
X146647D01*
X147047Y272232D01*
Y272632D02*
X147247Y272832D01*
X147447D01*
X147247Y273031D01*
X147447Y273232D01*
X147247D01*
X147047Y273431D01*
X146847Y273232D01*
X146647D01*
X146847Y273031D01*
X146647Y272832D01*
X146847D01*
X147047Y272632D01*
X161811Y278334D02*
X162211Y278734D01*
X162611D01*
X162211Y279134D01*
X162611Y279534D01*
X162211D01*
X161811Y279934D01*
X161411Y279534D01*
X161011D01*
X161411Y279134D01*
X161011Y278734D01*
X161411D01*
X161811Y278334D01*
Y278734D02*
X162011Y278934D01*
X162211D01*
X162011Y279134D01*
X162211Y279334D01*
X162011D01*
X161811Y279534D01*
X161611Y279334D01*
X161411D01*
X161611Y279134D01*
X161411Y278934D01*
X161611D01*
X161811Y278734D01*
X167913Y263570D02*
X168313Y263970D01*
X168713D01*
X168313Y264370D01*
X168713Y264770D01*
X168313D01*
X167913Y265170D01*
X167513Y264770D01*
X167113D01*
X167513Y264370D01*
X167113Y263970D01*
X167513D01*
X167913Y263570D01*
Y263970D02*
X168113Y264170D01*
X168313D01*
X168113Y264370D01*
X168313Y264570D01*
X168113D01*
X167913Y264770D01*
X167713Y264570D01*
X167513D01*
X167713Y264370D01*
X167513Y264170D01*
X167713D01*
X167913Y263970D01*
X153150Y257468D02*
X153550Y257868D01*
X153950D01*
X153550Y258268D01*
X153950Y258668D01*
X153550D01*
X153150Y259068D01*
X152750Y258668D01*
X152350D01*
X152750Y258268D01*
X152350Y257868D01*
X152750D01*
X153150Y257468D01*
Y257868D02*
X153350Y258068D01*
X153550D01*
X153350Y258268D01*
X153550Y258468D01*
X153350D01*
X153150Y258668D01*
X152950Y258468D01*
X152750D01*
X152950Y258268D01*
X152750Y258068D01*
X152950D01*
X153150Y257868D01*
X246457Y366720D02*
X246857Y367120D01*
X247257D01*
X246857Y367520D01*
X247257Y367920D01*
X246857D01*
X246457Y368320D01*
X246057Y367920D01*
X245657D01*
X246057Y367520D01*
X245657Y367120D01*
X246057D01*
X246457Y366720D01*
Y367120D02*
X246657Y367320D01*
X246857D01*
X246657Y367520D01*
X246857Y367720D01*
X246657D01*
X246457Y367920D01*
X246257Y367720D01*
X246057D01*
X246257Y367520D01*
X246057Y367320D01*
X246257D01*
X246457Y367120D01*
X231693Y372822D02*
X232093Y373222D01*
X232493D01*
X232093Y373622D01*
X232493Y374022D01*
X232093D01*
X231693Y374422D01*
X231293Y374022D01*
X230893D01*
X231293Y373622D01*
X230893Y373222D01*
X231293D01*
X231693Y372822D01*
Y373222D02*
X231893Y373422D01*
X232093D01*
X231893Y373622D01*
X232093Y373822D01*
X231893D01*
X231693Y374022D01*
X231493Y373822D01*
X231293D01*
X231493Y373622D01*
X231293Y373422D01*
X231493D01*
X231693Y373222D01*
X237795Y387586D02*
X238195Y387986D01*
X238595D01*
X238195Y388386D01*
X238595Y388786D01*
X238195D01*
X237795Y389186D01*
X237395Y388786D01*
X236995D01*
X237395Y388386D01*
X236995Y387986D01*
X237395D01*
X237795Y387586D01*
Y387986D02*
X237995Y388186D01*
X238195D01*
X237995Y388386D01*
X238195Y388586D01*
X237995D01*
X237795Y388786D01*
X237595Y388586D01*
X237395D01*
X237595Y388386D01*
X237395Y388186D01*
X237595D01*
X237795Y387986D01*
X252559Y381484D02*
X252959Y381884D01*
X253359D01*
X252959Y382283D01*
X253359Y382683D01*
X252959D01*
X252559Y383084D01*
X252159Y382683D01*
X251759D01*
X252159Y382283D01*
X251759Y381884D01*
X252159D01*
X252559Y381484D01*
Y381884D02*
X252759Y382084D01*
X252959D01*
X252759Y382283D01*
X252959Y382484D01*
X252759D01*
X252559Y382683D01*
X252359Y382484D01*
X252159D01*
X252359Y382283D01*
X252159Y382084D01*
X252359D01*
X252559Y381884D01*
X231693Y381484D02*
X232093Y381884D01*
X232493D01*
X232093Y382283D01*
X232493Y382683D01*
X232093D01*
X231693Y383084D01*
X231293Y382683D01*
X230893D01*
X231293Y382283D01*
X230893Y381884D01*
X231293D01*
X231693Y381484D01*
Y381884D02*
X231893Y382084D01*
X232093D01*
X231893Y382283D01*
X232093Y382484D01*
X231893D01*
X231693Y382683D01*
X231493Y382484D01*
X231293D01*
X231493Y382283D01*
X231293Y382084D01*
X231493D01*
X231693Y381884D01*
X246457Y387586D02*
X246857Y387986D01*
X247257D01*
X246857Y388386D01*
X247257Y388786D01*
X246857D01*
X246457Y389186D01*
X246057Y388786D01*
X245657D01*
X246057Y388386D01*
X245657Y387986D01*
X246057D01*
X246457Y387586D01*
Y387986D02*
X246657Y388186D01*
X246857D01*
X246657Y388386D01*
X246857Y388586D01*
X246657D01*
X246457Y388786D01*
X246257Y388586D01*
X246057D01*
X246257Y388386D01*
X246057Y388186D01*
X246257D01*
X246457Y387986D01*
X252559Y372822D02*
X252959Y373222D01*
X253359D01*
X252959Y373622D01*
X253359Y374022D01*
X252959D01*
X252559Y374422D01*
X252159Y374022D01*
X251759D01*
X252159Y373622D01*
X251759Y373222D01*
X252159D01*
X252559Y372822D01*
Y373222D02*
X252759Y373422D01*
X252959D01*
X252759Y373622D01*
X252959Y373822D01*
X252759D01*
X252559Y374022D01*
X252359Y373822D01*
X252159D01*
X252359Y373622D01*
X252159Y373422D01*
X252359D01*
X252559Y373222D01*
X237795Y366720D02*
X238195Y367120D01*
X238595D01*
X238195Y367520D01*
X238595Y367920D01*
X238195D01*
X237795Y368320D01*
X237395Y367920D01*
X236995D01*
X237395Y367520D01*
X236995Y367120D01*
X237395D01*
X237795Y366720D01*
Y367120D02*
X237995Y367320D01*
X238195D01*
X237995Y367520D01*
X238195Y367720D01*
X237995D01*
X237795Y367920D01*
X237595Y367720D01*
X237395D01*
X237595Y367520D01*
X237395Y367320D01*
X237595D01*
X237795Y367120D01*
X20079Y366720D02*
X20479Y367120D01*
X20879D01*
X20479Y367520D01*
X20879Y367920D01*
X20479D01*
X20079Y368320D01*
X19679Y367920D01*
X19279D01*
X19679Y367520D01*
X19279Y367120D01*
X19679D01*
X20079Y366720D01*
Y367120D02*
X20279Y367320D01*
X20479D01*
X20279Y367520D01*
X20479Y367720D01*
X20279D01*
X20079Y367920D01*
X19879Y367720D01*
X19679D01*
X19879Y367520D01*
X19679Y367320D01*
X19879D01*
X20079Y367120D01*
X5315Y372822D02*
X5715Y373222D01*
X6115D01*
X5715Y373622D01*
X6115Y374022D01*
X5715D01*
X5315Y374422D01*
X4915Y374022D01*
X4515D01*
X4915Y373622D01*
X4515Y373222D01*
X4915D01*
X5315Y372822D01*
Y373222D02*
X5515Y373422D01*
X5715D01*
X5515Y373622D01*
X5715Y373822D01*
X5515D01*
X5315Y374022D01*
X5115Y373822D01*
X4915D01*
X5115Y373622D01*
X4915Y373422D01*
X5115D01*
X5315Y373222D01*
X11417Y387586D02*
X11817Y387986D01*
X12217D01*
X11817Y388386D01*
X12217Y388786D01*
X11817D01*
X11417Y389186D01*
X11017Y388786D01*
X10617D01*
X11017Y388386D01*
X10617Y387986D01*
X11017D01*
X11417Y387586D01*
Y387986D02*
X11617Y388186D01*
X11817D01*
X11617Y388386D01*
X11817Y388586D01*
X11617D01*
X11417Y388786D01*
X11217Y388586D01*
X11017D01*
X11217Y388386D01*
X11017Y388186D01*
X11217D01*
X11417Y387986D01*
X26181Y381484D02*
X26581Y381884D01*
X26981D01*
X26581Y382283D01*
X26981Y382683D01*
X26581D01*
X26181Y383084D01*
X25781Y382683D01*
X25381D01*
X25781Y382283D01*
X25381Y381884D01*
X25781D01*
X26181Y381484D01*
Y381884D02*
X26381Y382084D01*
X26581D01*
X26381Y382283D01*
X26581Y382484D01*
X26381D01*
X26181Y382683D01*
X25981Y382484D01*
X25781D01*
X25981Y382283D01*
X25781Y382084D01*
X25981D01*
X26181Y381884D01*
X5315Y381484D02*
X5715Y381884D01*
X6115D01*
X5715Y382283D01*
X6115Y382683D01*
X5715D01*
X5315Y383084D01*
X4915Y382683D01*
X4515D01*
X4915Y382283D01*
X4515Y381884D01*
X4915D01*
X5315Y381484D01*
Y381884D02*
X5515Y382084D01*
X5715D01*
X5515Y382283D01*
X5715Y382484D01*
X5515D01*
X5315Y382683D01*
X5115Y382484D01*
X4915D01*
X5115Y382283D01*
X4915Y382084D01*
X5115D01*
X5315Y381884D01*
X20079Y387586D02*
X20479Y387986D01*
X20879D01*
X20479Y388386D01*
X20879Y388786D01*
X20479D01*
X20079Y389186D01*
X19679Y388786D01*
X19279D01*
X19679Y388386D01*
X19279Y387986D01*
X19679D01*
X20079Y387586D01*
Y387986D02*
X20279Y388186D01*
X20479D01*
X20279Y388386D01*
X20479Y388586D01*
X20279D01*
X20079Y388786D01*
X19879Y388586D01*
X19679D01*
X19879Y388386D01*
X19679Y388186D01*
X19879D01*
X20079Y387986D01*
X26181Y372822D02*
X26581Y373222D01*
X26981D01*
X26581Y373622D01*
X26981Y374022D01*
X26581D01*
X26181Y374422D01*
X25781Y374022D01*
X25381D01*
X25781Y373622D01*
X25381Y373222D01*
X25781D01*
X26181Y372822D01*
Y373222D02*
X26381Y373422D01*
X26581D01*
X26381Y373622D01*
X26581Y373822D01*
X26381D01*
X26181Y374022D01*
X25981Y373822D01*
X25781D01*
X25981Y373622D01*
X25781Y373422D01*
X25981D01*
X26181Y373222D01*
X11417Y366720D02*
X11817Y367120D01*
X12217D01*
X11817Y367520D01*
X12217Y367920D01*
X11817D01*
X11417Y368320D01*
X11017Y367920D01*
X10617D01*
X11017Y367520D01*
X10617Y367120D01*
X11017D01*
X11417Y366720D01*
Y367120D02*
X11617Y367320D01*
X11817D01*
X11617Y367520D01*
X11817Y367720D01*
X11617D01*
X11417Y367920D01*
X11217Y367720D01*
X11017D01*
X11217Y367520D01*
X11017Y367320D01*
X11217D01*
X11417Y367120D01*
X156680Y93688D02*
X157080Y94488D01*
X156680Y95288D01*
X157480Y94888D01*
X158280Y95288D01*
X157880Y94488D01*
X158280Y93688D01*
X157480Y94088D01*
X156680Y93688D01*
X157080Y94088D02*
X157280Y94488D01*
X157080Y94888D01*
X157480Y94688D01*
X157880Y94888D01*
X157680Y94488D01*
X157880Y94088D01*
X157480Y94288D01*
X157080Y94088D01*
X11417Y217113D02*
X11817Y217513D01*
X12217D01*
X11817Y217913D01*
X12217Y218313D01*
X11817D01*
X11417Y218713D01*
X11017Y218313D01*
X10617D01*
X11017Y217913D01*
X10617Y217513D01*
X11017D01*
X11417Y217113D01*
Y217513D02*
X11617Y217713D01*
X11817D01*
X11617Y217913D01*
X11817Y218113D01*
X11617D01*
X11417Y218313D01*
X11217Y218113D01*
X11017D01*
X11217Y217913D01*
X11017Y217713D01*
X11217D01*
X11417Y217513D01*
X26181Y223216D02*
X26581Y223616D01*
X26981D01*
X26581Y224016D01*
X26981Y224416D01*
X26581D01*
X26181Y224816D01*
X25781Y224416D01*
X25381D01*
X25781Y224016D01*
X25381Y223616D01*
X25781D01*
X26181Y223216D01*
Y223616D02*
X26381Y223816D01*
X26581D01*
X26381Y224016D01*
X26581Y224216D01*
X26381D01*
X26181Y224416D01*
X25981Y224216D01*
X25781D01*
X25981Y224016D01*
X25781Y223816D01*
X25981D01*
X26181Y223616D01*
X20079Y237980D02*
X20479Y238380D01*
X20879D01*
X20479Y238779D01*
X20879Y239179D01*
X20479D01*
X20079Y239580D01*
X19679Y239179D01*
X19279D01*
X19679Y238779D01*
X19279Y238380D01*
X19679D01*
X20079Y237980D01*
Y238380D02*
X20279Y238580D01*
X20479D01*
X20279Y238779D01*
X20479Y238980D01*
X20279D01*
X20079Y239179D01*
X19879Y238980D01*
X19679D01*
X19879Y238779D01*
X19679Y238580D01*
X19879D01*
X20079Y238380D01*
X5315Y231877D02*
X5715Y232277D01*
X6115D01*
X5715Y232677D01*
X6115Y233077D01*
X5715D01*
X5315Y233477D01*
X4915Y233077D01*
X4515D01*
X4915Y232677D01*
X4515Y232277D01*
X4915D01*
X5315Y231877D01*
Y232277D02*
X5515Y232477D01*
X5715D01*
X5515Y232677D01*
X5715Y232877D01*
X5515D01*
X5315Y233077D01*
X5115Y232877D01*
X4915D01*
X5115Y232677D01*
X4915Y232477D01*
X5115D01*
X5315Y232277D01*
X26181Y231877D02*
X26581Y232277D01*
X26981D01*
X26581Y232677D01*
X26981Y233077D01*
X26581D01*
X26181Y233477D01*
X25781Y233077D01*
X25381D01*
X25781Y232677D01*
X25381Y232277D01*
X25781D01*
X26181Y231877D01*
Y232277D02*
X26381Y232477D01*
X26581D01*
X26381Y232677D01*
X26581Y232877D01*
X26381D01*
X26181Y233077D01*
X25981Y232877D01*
X25781D01*
X25981Y232677D01*
X25781Y232477D01*
X25981D01*
X26181Y232277D01*
X11417Y237980D02*
X11817Y238380D01*
X12217D01*
X11817Y238779D01*
X12217Y239179D01*
X11817D01*
X11417Y239580D01*
X11017Y239179D01*
X10617D01*
X11017Y238779D01*
X10617Y238380D01*
X11017D01*
X11417Y237980D01*
Y238380D02*
X11617Y238580D01*
X11817D01*
X11617Y238779D01*
X11817Y238980D01*
X11617D01*
X11417Y239179D01*
X11217Y238980D01*
X11017D01*
X11217Y238779D01*
X11017Y238580D01*
X11217D01*
X11417Y238380D01*
X5315Y223216D02*
X5715Y223616D01*
X6115D01*
X5715Y224016D01*
X6115Y224416D01*
X5715D01*
X5315Y224816D01*
X4915Y224416D01*
X4515D01*
X4915Y224016D01*
X4515Y223616D01*
X4915D01*
X5315Y223216D01*
Y223616D02*
X5515Y223816D01*
X5715D01*
X5515Y224016D01*
X5715Y224216D01*
X5515D01*
X5315Y224416D01*
X5115Y224216D01*
X4915D01*
X5115Y224016D01*
X4915Y223816D01*
X5115D01*
X5315Y223616D01*
X20079Y217113D02*
X20479Y217513D01*
X20879D01*
X20479Y217913D01*
X20879Y218313D01*
X20479D01*
X20079Y218713D01*
X19679Y218313D01*
X19279D01*
X19679Y217913D01*
X19279Y217513D01*
X19679D01*
X20079Y217113D01*
Y217513D02*
X20279Y217713D01*
X20479D01*
X20279Y217913D01*
X20479Y218113D01*
X20279D01*
X20079Y218313D01*
X19879Y218113D01*
X19679D01*
X19879Y217913D01*
X19679Y217713D01*
X19879D01*
X20079Y217513D01*
X67323Y23216D02*
X67723Y23616D01*
X68123D01*
X67723Y24016D01*
X68123Y24416D01*
X67723D01*
X67323Y24816D01*
X66923Y24416D01*
X66523D01*
X66923Y24016D01*
X66523Y23616D01*
X66923D01*
X67323Y23216D01*
Y23616D02*
X67523Y23816D01*
X67723D01*
X67523Y24016D01*
X67723Y24216D01*
X67523D01*
X67323Y24416D01*
X67123Y24216D01*
X66923D01*
X67123Y24016D01*
X66923Y23816D01*
X67123D01*
X67323Y23616D01*
X52559Y29318D02*
X52959Y29718D01*
X53359D01*
X52959Y30118D01*
X53359Y30518D01*
X52959D01*
X52559Y30918D01*
X52159Y30518D01*
X51759D01*
X52159Y30118D01*
X51759Y29718D01*
X52159D01*
X52559Y29318D01*
Y29718D02*
X52759Y29918D01*
X52959D01*
X52759Y30118D01*
X52959Y30318D01*
X52759D01*
X52559Y30518D01*
X52359Y30318D01*
X52159D01*
X52359Y30118D01*
X52159Y29918D01*
X52359D01*
X52559Y29718D01*
X58661Y44082D02*
X59061Y44482D01*
X59461D01*
X59061Y44882D01*
X59461Y45282D01*
X59061D01*
X58661Y45682D01*
X58261Y45282D01*
X57861D01*
X58261Y44882D01*
X57861Y44482D01*
X58261D01*
X58661Y44082D01*
Y44482D02*
X58861Y44682D01*
X59061D01*
X58861Y44882D01*
X59061Y45082D01*
X58861D01*
X58661Y45282D01*
X58461Y45082D01*
X58261D01*
X58461Y44882D01*
X58261Y44682D01*
X58461D01*
X58661Y44482D01*
X73425Y37980D02*
X73825Y38379D01*
X74225D01*
X73825Y38780D01*
X74225Y39180D01*
X73825D01*
X73425Y39579D01*
X73025Y39180D01*
X72625D01*
X73025Y38780D01*
X72625Y38379D01*
X73025D01*
X73425Y37980D01*
Y38379D02*
X73625Y38579D01*
X73825D01*
X73625Y38780D01*
X73825Y38980D01*
X73625D01*
X73425Y39180D01*
X73225Y38980D01*
X73025D01*
X73225Y38780D01*
X73025Y38579D01*
X73225D01*
X73425Y38379D01*
X52559Y37980D02*
X52959Y38379D01*
X53359D01*
X52959Y38780D01*
X53359Y39180D01*
X52959D01*
X52559Y39579D01*
X52159Y39180D01*
X51759D01*
X52159Y38780D01*
X51759Y38379D01*
X52159D01*
X52559Y37980D01*
Y38379D02*
X52759Y38579D01*
X52959D01*
X52759Y38780D01*
X52959Y38980D01*
X52759D01*
X52559Y39180D01*
X52359Y38980D01*
X52159D01*
X52359Y38780D01*
X52159Y38579D01*
X52359D01*
X52559Y38379D01*
X67323Y44082D02*
X67723Y44482D01*
X68123D01*
X67723Y44882D01*
X68123Y45282D01*
X67723D01*
X67323Y45682D01*
X66923Y45282D01*
X66523D01*
X66923Y44882D01*
X66523Y44482D01*
X66923D01*
X67323Y44082D01*
Y44482D02*
X67523Y44682D01*
X67723D01*
X67523Y44882D01*
X67723Y45082D01*
X67523D01*
X67323Y45282D01*
X67123Y45082D01*
X66923D01*
X67123Y44882D01*
X66923Y44682D01*
X67123D01*
X67323Y44482D01*
X73425Y29318D02*
X73825Y29718D01*
X74225D01*
X73825Y30118D01*
X74225Y30518D01*
X73825D01*
X73425Y30918D01*
X73025Y30518D01*
X72625D01*
X73025Y30118D01*
X72625Y29718D01*
X73025D01*
X73425Y29318D01*
Y29718D02*
X73625Y29918D01*
X73825D01*
X73625Y30118D01*
X73825Y30318D01*
X73625D01*
X73425Y30518D01*
X73225Y30318D01*
X73025D01*
X73225Y30118D01*
X73025Y29918D01*
X73225D01*
X73425Y29718D01*
X58661Y23216D02*
X59061Y23616D01*
X59461D01*
X59061Y24016D01*
X59461Y24416D01*
X59061D01*
X58661Y24816D01*
X58261Y24416D01*
X57861D01*
X58261Y24016D01*
X57861Y23616D01*
X58261D01*
X58661Y23216D01*
Y23616D02*
X58861Y23816D01*
X59061D01*
X58861Y24016D01*
X59061Y24216D01*
X58861D01*
X58661Y24416D01*
X58461Y24216D01*
X58261D01*
X58461Y24016D01*
X58261Y23816D01*
X58461D01*
X58661Y23616D01*
X187200Y364031D02*
X187600Y364830D01*
X187200Y365631D01*
X188000Y365230D01*
X188800Y365631D01*
X188400Y364830D01*
X188800Y364031D01*
X188000Y364430D01*
X187200Y364031D01*
X187600Y364430D02*
X187800Y364830D01*
X187600Y365230D01*
X188000Y365031D01*
X188400Y365230D01*
X188200Y364830D01*
X188400Y364430D01*
X188000Y364631D01*
X187600Y364430D01*
X132200Y340200D02*
X132600Y341000D01*
X132200Y341800D01*
X133000Y341400D01*
X133800Y341800D01*
X133400Y341000D01*
X133800Y340200D01*
X133000Y340600D01*
X132200Y340200D01*
X132600Y340600D02*
X132800Y341000D01*
X132600Y341400D01*
X133000Y341200D01*
X133400Y341400D01*
X133200Y341000D01*
X133400Y340600D01*
X133000Y340800D01*
X132600Y340600D01*
X72200Y359200D02*
X72600Y360000D01*
X72200Y360800D01*
X73000Y360400D01*
X73800Y360800D01*
X73400Y360000D01*
X73800Y359200D01*
X73000Y359600D01*
X72200Y359200D01*
X72600Y359600D02*
X72800Y360000D01*
X72600Y360400D01*
X73000Y360200D01*
X73400Y360400D01*
X73200Y360000D01*
X73400Y359600D01*
X73000Y359800D01*
X72600Y359600D01*
X235200Y312200D02*
X235600Y313000D01*
X235200Y313800D01*
X236000Y313400D01*
X236800Y313800D01*
X236400Y313000D01*
X236800Y312200D01*
X236000Y312600D01*
X235200Y312200D01*
X235600Y312600D02*
X235800Y313000D01*
X235600Y313400D01*
X236000Y313200D01*
X236400Y313400D01*
X236200Y313000D01*
X236400Y312600D01*
X236000Y312800D01*
X235600Y312600D01*
X101200Y352200D02*
X101600Y353000D01*
X101200Y353800D01*
X102000Y353400D01*
X102800Y353800D01*
X102400Y353000D01*
X102800Y352200D01*
X102000Y352600D01*
X101200Y352200D01*
X101600Y352600D02*
X101800Y353000D01*
X101600Y353400D01*
X102000Y353200D01*
X102400Y353400D01*
X102200Y353000D01*
X102400Y352600D01*
X102000Y352800D01*
X101600Y352600D01*
X161811Y217113D02*
X162211Y217513D01*
X162611D01*
X162211Y217913D01*
X162611Y218313D01*
X162211D01*
X161811Y218713D01*
X161411Y218313D01*
X161011D01*
X161411Y217913D01*
X161011Y217513D01*
X161411D01*
X161811Y217113D01*
Y217513D02*
X162011Y217713D01*
X162211D01*
X162011Y217913D01*
X162211Y218113D01*
X162011D01*
X161811Y218313D01*
X161611Y218113D01*
X161411D01*
X161611Y217913D01*
X161411Y217713D01*
X161611D01*
X161811Y217513D01*
X147047Y223216D02*
X147447Y223616D01*
X147847D01*
X147447Y224016D01*
X147847Y224416D01*
X147447D01*
X147047Y224816D01*
X146647Y224416D01*
X146247D01*
X146647Y224016D01*
X146247Y223616D01*
X146647D01*
X147047Y223216D01*
Y223616D02*
X147247Y223816D01*
X147447D01*
X147247Y224016D01*
X147447Y224216D01*
X147247D01*
X147047Y224416D01*
X146847Y224216D01*
X146647D01*
X146847Y224016D01*
X146647Y223816D01*
X146847D01*
X147047Y223616D01*
X153150Y237980D02*
X153550Y238380D01*
X153950D01*
X153550Y238779D01*
X153950Y239179D01*
X153550D01*
X153150Y239580D01*
X152750Y239179D01*
X152350D01*
X152750Y238779D01*
X152350Y238380D01*
X152750D01*
X153150Y237980D01*
Y238380D02*
X153350Y238580D01*
X153550D01*
X153350Y238779D01*
X153550Y238980D01*
X153350D01*
X153150Y239179D01*
X152950Y238980D01*
X152750D01*
X152950Y238779D01*
X152750Y238580D01*
X152950D01*
X153150Y238380D01*
X167913Y231877D02*
X168313Y232277D01*
X168713D01*
X168313Y232677D01*
X168713Y233077D01*
X168313D01*
X167913Y233477D01*
X167513Y233077D01*
X167113D01*
X167513Y232677D01*
X167113Y232277D01*
X167513D01*
X167913Y231877D01*
Y232277D02*
X168113Y232477D01*
X168313D01*
X168113Y232677D01*
X168313Y232877D01*
X168113D01*
X167913Y233077D01*
X167713Y232877D01*
X167513D01*
X167713Y232677D01*
X167513Y232477D01*
X167713D01*
X167913Y232277D01*
X147047Y231877D02*
X147447Y232277D01*
X147847D01*
X147447Y232677D01*
X147847Y233077D01*
X147447D01*
X147047Y233477D01*
X146647Y233077D01*
X146247D01*
X146647Y232677D01*
X146247Y232277D01*
X146647D01*
X147047Y231877D01*
Y232277D02*
X147247Y232477D01*
X147447D01*
X147247Y232677D01*
X147447Y232877D01*
X147247D01*
X147047Y233077D01*
X146847Y232877D01*
X146647D01*
X146847Y232677D01*
X146647Y232477D01*
X146847D01*
X147047Y232277D01*
X161811Y237980D02*
X162211Y238380D01*
X162611D01*
X162211Y238779D01*
X162611Y239179D01*
X162211D01*
X161811Y239580D01*
X161411Y239179D01*
X161011D01*
X161411Y238779D01*
X161011Y238380D01*
X161411D01*
X161811Y237980D01*
Y238380D02*
X162011Y238580D01*
X162211D01*
X162011Y238779D01*
X162211Y238980D01*
X162011D01*
X161811Y239179D01*
X161611Y238980D01*
X161411D01*
X161611Y238779D01*
X161411Y238580D01*
X161611D01*
X161811Y238380D01*
X167913Y223216D02*
X168313Y223616D01*
X168713D01*
X168313Y224016D01*
X168713Y224416D01*
X168313D01*
X167913Y224816D01*
X167513Y224416D01*
X167113D01*
X167513Y224016D01*
X167113Y223616D01*
X167513D01*
X167913Y223216D01*
Y223616D02*
X168113Y223816D01*
X168313D01*
X168113Y224016D01*
X168313Y224216D01*
X168113D01*
X167913Y224416D01*
X167713Y224216D01*
X167513D01*
X167713Y224016D01*
X167513Y223816D01*
X167713D01*
X167913Y223616D01*
X153150Y217113D02*
X153550Y217513D01*
X153950D01*
X153550Y217913D01*
X153950Y218313D01*
X153550D01*
X153150Y218713D01*
X152750Y218313D01*
X152350D01*
X152750Y217913D01*
X152350Y217513D01*
X152750D01*
X153150Y217113D01*
Y217513D02*
X153350Y217713D01*
X153550D01*
X153350Y217913D01*
X153550Y218113D01*
X153350D01*
X153150Y218313D01*
X152950Y218113D01*
X152750D01*
X152950Y217913D01*
X152750Y217713D01*
X152950D01*
X153150Y217513D01*
X20079Y257468D02*
X20479Y257868D01*
X20879D01*
X20479Y258268D01*
X20879Y258668D01*
X20479D01*
X20079Y259068D01*
X19679Y258668D01*
X19279D01*
X19679Y258268D01*
X19279Y257868D01*
X19679D01*
X20079Y257468D01*
Y257868D02*
X20279Y258068D01*
X20479D01*
X20279Y258268D01*
X20479Y258468D01*
X20279D01*
X20079Y258668D01*
X19879Y258468D01*
X19679D01*
X19879Y258268D01*
X19679Y258068D01*
X19879D01*
X20079Y257868D01*
X5315Y263570D02*
X5715Y263970D01*
X6115D01*
X5715Y264370D01*
X6115Y264770D01*
X5715D01*
X5315Y265170D01*
X4915Y264770D01*
X4515D01*
X4915Y264370D01*
X4515Y263970D01*
X4915D01*
X5315Y263570D01*
Y263970D02*
X5515Y264170D01*
X5715D01*
X5515Y264370D01*
X5715Y264570D01*
X5515D01*
X5315Y264770D01*
X5115Y264570D01*
X4915D01*
X5115Y264370D01*
X4915Y264170D01*
X5115D01*
X5315Y263970D01*
X11417Y278334D02*
X11817Y278734D01*
X12217D01*
X11817Y279134D01*
X12217Y279534D01*
X11817D01*
X11417Y279934D01*
X11017Y279534D01*
X10617D01*
X11017Y279134D01*
X10617Y278734D01*
X11017D01*
X11417Y278334D01*
Y278734D02*
X11617Y278934D01*
X11817D01*
X11617Y279134D01*
X11817Y279334D01*
X11617D01*
X11417Y279534D01*
X11217Y279334D01*
X11017D01*
X11217Y279134D01*
X11017Y278934D01*
X11217D01*
X11417Y278734D01*
X26181Y272232D02*
X26581Y272632D01*
X26981D01*
X26581Y273031D01*
X26981Y273431D01*
X26581D01*
X26181Y273832D01*
X25781Y273431D01*
X25381D01*
X25781Y273031D01*
X25381Y272632D01*
X25781D01*
X26181Y272232D01*
Y272632D02*
X26381Y272832D01*
X26581D01*
X26381Y273031D01*
X26581Y273232D01*
X26381D01*
X26181Y273431D01*
X25981Y273232D01*
X25781D01*
X25981Y273031D01*
X25781Y272832D01*
X25981D01*
X26181Y272632D01*
X5315Y272232D02*
X5715Y272632D01*
X6115D01*
X5715Y273031D01*
X6115Y273431D01*
X5715D01*
X5315Y273832D01*
X4915Y273431D01*
X4515D01*
X4915Y273031D01*
X4515Y272632D01*
X4915D01*
X5315Y272232D01*
Y272632D02*
X5515Y272832D01*
X5715D01*
X5515Y273031D01*
X5715Y273232D01*
X5515D01*
X5315Y273431D01*
X5115Y273232D01*
X4915D01*
X5115Y273031D01*
X4915Y272832D01*
X5115D01*
X5315Y272632D01*
X20079Y278334D02*
X20479Y278734D01*
X20879D01*
X20479Y279134D01*
X20879Y279534D01*
X20479D01*
X20079Y279934D01*
X19679Y279534D01*
X19279D01*
X19679Y279134D01*
X19279Y278734D01*
X19679D01*
X20079Y278334D01*
Y278734D02*
X20279Y278934D01*
X20479D01*
X20279Y279134D01*
X20479Y279334D01*
X20279D01*
X20079Y279534D01*
X19879Y279334D01*
X19679D01*
X19879Y279134D01*
X19679Y278934D01*
X19879D01*
X20079Y278734D01*
X26181Y263570D02*
X26581Y263970D01*
X26981D01*
X26581Y264370D01*
X26981Y264770D01*
X26581D01*
X26181Y265170D01*
X25781Y264770D01*
X25381D01*
X25781Y264370D01*
X25381Y263970D01*
X25781D01*
X26181Y263570D01*
Y263970D02*
X26381Y264170D01*
X26581D01*
X26381Y264370D01*
X26581Y264570D01*
X26381D01*
X26181Y264770D01*
X25981Y264570D01*
X25781D01*
X25981Y264370D01*
X25781Y264170D01*
X25981D01*
X26181Y263970D01*
X11417Y257468D02*
X11817Y257868D01*
X12217D01*
X11817Y258268D01*
X12217Y258668D01*
X11817D01*
X11417Y259068D01*
X11017Y258668D01*
X10617D01*
X11017Y258268D01*
X10617Y257868D01*
X11017D01*
X11417Y257468D01*
Y257868D02*
X11617Y258068D01*
X11817D01*
X11617Y258268D01*
X11817Y258468D01*
X11617D01*
X11417Y258668D01*
X11217Y258468D01*
X11017D01*
X11217Y258268D01*
X11017Y258068D01*
X11217D01*
X11417Y257868D01*
D77*
X65761Y233268D02*
X65208Y234029D01*
X64314Y233738D01*
Y232798D01*
X65208Y232507D01*
X65761Y233268D01*
Y276575D02*
X65208Y277336D01*
X64314Y277045D01*
Y276105D01*
X65208Y275814D01*
X65761Y276575D01*
X233084Y149016D02*
X232531Y149777D01*
X231637Y149486D01*
Y148546D01*
X232531Y148255D01*
X233084Y149016D01*
Y108858D02*
X232531Y109619D01*
X231637Y109328D01*
Y108388D01*
X232531Y108097D01*
X233084Y108858D01*
X103163Y149016D02*
X102610Y149777D01*
X101715Y149486D01*
Y148546D01*
X102610Y148255D01*
X103163Y149016D01*
Y108858D02*
X102610Y109619D01*
X101715Y109328D01*
Y108388D01*
X102610Y108097D01*
X103163Y108858D01*
X193714Y276575D02*
X193161Y277336D01*
X192266Y277045D01*
Y276105D01*
X193161Y275814D01*
X193714Y276575D01*
Y233268D02*
X193161Y234029D01*
X192266Y233738D01*
Y232798D01*
X193161Y232507D01*
X193714Y233268D01*
X138648Y391693D02*
X138095Y392454D01*
X137200Y392163D01*
Y391223D01*
X138095Y390932D01*
X138648Y391693D01*
X148648D02*
X148095Y392454D01*
X147200Y392163D01*
Y391223D01*
X148095Y390932D01*
X148648Y391693D01*
X138648Y381693D02*
X138095Y382454D01*
X137200Y382163D01*
Y381223D01*
X138095Y380932D01*
X138648Y381693D01*
X148648D02*
X148095Y382454D01*
X147200Y382163D01*
Y381223D01*
X148095Y380932D01*
X148648Y381693D01*
X158648Y391693D02*
X158095Y392454D01*
X157200Y392163D01*
Y391223D01*
X158095Y390932D01*
X158648Y391693D01*
X168648D02*
X168095Y392454D01*
X167200Y392163D01*
Y391223D01*
X168095Y390932D01*
X168648Y391693D01*
X158648Y381693D02*
X158095Y382454D01*
X157200Y382163D01*
Y381223D01*
X158095Y380932D01*
X158648Y381693D01*
X168648D02*
X168095Y382454D01*
X167200Y382163D01*
Y381223D01*
X168095Y380932D01*
X168648Y381693D01*
X98648Y391693D02*
X98095Y392454D01*
X97200Y392163D01*
Y391223D01*
X98095Y390932D01*
X98648Y391693D01*
X128648Y381693D02*
X128095Y382454D01*
X127200Y382163D01*
Y381223D01*
X128095Y380932D01*
X128648Y381693D01*
Y391693D02*
X128095Y392454D01*
X127200Y392163D01*
Y391223D01*
X128095Y390932D01*
X128648Y391693D01*
X118648Y381693D02*
X118095Y382454D01*
X117200Y382163D01*
Y381223D01*
X118095Y380932D01*
X118648Y381693D01*
Y391693D02*
X118095Y392454D01*
X117200Y392163D01*
Y391223D01*
X118095Y390932D01*
X118648Y391693D01*
X98648Y381693D02*
X98095Y382454D01*
X97200Y382163D01*
Y381223D01*
X98095Y380932D01*
X98648Y381693D01*
X108648Y391693D02*
X108095Y392454D01*
X107200Y392163D01*
Y391223D01*
X108095Y390932D01*
X108648Y391693D01*
Y381693D02*
X108095Y382454D01*
X107200Y382163D01*
Y381223D01*
X108095Y380932D01*
X108648Y381693D01*
D78*
X232684Y149016D02*
X232084Y149362D01*
Y148669D01*
X232684Y149016D01*
Y108858D02*
X232084Y109205D01*
Y108512D01*
X232684Y108858D01*
X102763Y149016D02*
X102163Y149362D01*
Y148669D01*
X102763Y149016D01*
Y108858D02*
X102163Y109205D01*
Y108512D01*
X102763Y108858D01*
X138248Y391693D02*
X137648Y392039D01*
Y391347D01*
X138248Y391693D01*
X148248D02*
X147648Y392039D01*
Y391347D01*
X148248Y391693D01*
X138248Y381693D02*
X137648Y382039D01*
Y381347D01*
X138248Y381693D01*
X148248D02*
X147648Y382039D01*
Y381347D01*
X148248Y381693D01*
X158248Y391693D02*
X157648Y392039D01*
Y391347D01*
X158248Y391693D01*
X168248D02*
X167648Y392039D01*
Y391347D01*
X168248Y391693D01*
X158248Y381693D02*
X157648Y382039D01*
Y381347D01*
X158248Y381693D01*
X168248D02*
X167648Y382039D01*
Y381347D01*
X168248Y381693D01*
X98248Y391693D02*
X97648Y392039D01*
Y391347D01*
X98248Y391693D01*
X128248Y381693D02*
X127648Y382039D01*
Y381347D01*
X128248Y381693D01*
Y391693D02*
X127648Y392039D01*
Y391347D01*
X128248Y391693D01*
X118248Y381693D02*
X117648Y382039D01*
Y381347D01*
X118248Y381693D01*
Y391693D02*
X117648Y392039D01*
Y391347D01*
X118248Y391693D01*
X98248Y381693D02*
X97648Y382039D01*
Y381347D01*
X98248Y381693D01*
X108248Y391693D02*
X107648Y392039D01*
Y391347D01*
X108248Y391693D01*
Y381693D02*
X107648Y382039D01*
Y381347D01*
X108248Y381693D01*
M02*
