G04 Layer_Color=255*
%FSLAX25Y25*%
%MOIN*%
G70*
G01*
G75*
%ADD17C,0.15748*%
%ADD18C,0.11811*%
%ADD19C,0.07500*%
%ADD20C,0.08000*%
%ADD21C,0.06500*%
%ADD22R,0.06299X0.06299*%
%ADD23C,0.07874*%
%ADD24C,0.13780*%
%ADD25C,0.07087*%
%ADD26R,0.05906X0.05906*%
%ADD27C,0.05906*%
%ADD28C,0.06299*%
%ADD29O,0.11811X0.07087*%
G04:AMPARAMS|DCode=30|XSize=62.99mil|YSize=70.87mil|CornerRadius=15.75mil|HoleSize=0mil|Usage=FLASHONLY|Rotation=180.000|XOffset=0mil|YOffset=0mil|HoleType=Round|Shape=RoundedRectangle|*
%AMROUNDEDRECTD30*
21,1,0.06299,0.03937,0,0,180.0*
21,1,0.03150,0.07087,0,0,180.0*
1,1,0.03150,-0.01575,0.01969*
1,1,0.03150,0.01575,0.01969*
1,1,0.03150,0.01575,-0.01969*
1,1,0.03150,-0.01575,-0.01969*
%
%ADD30ROUNDEDRECTD30*%
%ADD31O,0.06299X0.07087*%
D17*
X157480Y268701D02*
D03*
X242126Y377953D02*
D03*
X15748D02*
D03*
X64961Y233268D02*
D03*
Y276575D02*
D03*
X15748Y228346D02*
D03*
X62992Y34449D02*
D03*
X192914Y276575D02*
D03*
Y233268D02*
D03*
X23315Y38632D02*
D03*
X62685D02*
D03*
X157480Y228346D02*
D03*
X15748Y268701D02*
D03*
D18*
X152756Y61811D02*
D03*
X192126D02*
D03*
X23622D02*
D03*
X62992D02*
D03*
D19*
X117126Y23622D02*
D03*
Y78622D02*
D03*
X227362Y23622D02*
D03*
Y78622D02*
D03*
D20*
X94488Y18701D02*
D03*
Y78701D02*
D03*
X250000Y19685D02*
D03*
Y79685D02*
D03*
D21*
X98425Y9843D02*
D03*
X128425D02*
D03*
X251457Y8858D02*
D03*
X221457D02*
D03*
D22*
X219000Y367293D02*
D03*
X39508Y367539D02*
D03*
D23*
X8859Y310039D02*
D03*
X119095D02*
D03*
X8859Y349410D02*
D03*
X119095D02*
D03*
X159449Y302165D02*
D03*
X228347D02*
D03*
X166339Y341535D02*
D03*
X221457D02*
D03*
X91536D02*
D03*
X36418D02*
D03*
X98426Y302165D02*
D03*
X29528D02*
D03*
X138780Y310039D02*
D03*
X249016D02*
D03*
X138780Y349410D02*
D03*
X249016D02*
D03*
D24*
X182284Y93898D02*
D03*
X242126Y128937D02*
D03*
X172441Y163976D02*
D03*
X52363Y93898D02*
D03*
X112205Y128937D02*
D03*
X42520Y163976D02*
D03*
D25*
X232284Y149016D02*
D03*
Y108858D02*
D03*
X102363Y149016D02*
D03*
Y108858D02*
D03*
D26*
X97848Y391693D02*
D03*
D27*
Y381693D02*
D03*
X107848Y391693D02*
D03*
Y381693D02*
D03*
X117848Y391693D02*
D03*
Y381693D02*
D03*
X127848Y391693D02*
D03*
Y381693D02*
D03*
X137848Y391693D02*
D03*
Y381693D02*
D03*
X147848Y391693D02*
D03*
Y381693D02*
D03*
X157848Y391693D02*
D03*
Y381693D02*
D03*
X167848Y391693D02*
D03*
Y381693D02*
D03*
D28*
X219000Y377293D02*
D03*
X39508Y377539D02*
D03*
D29*
X232283Y165354D02*
D03*
Y291339D02*
D03*
Y185039D02*
D03*
Y271654D02*
D03*
Y196850D02*
D03*
Y259842D02*
D03*
X106300Y165354D02*
D03*
Y291339D02*
D03*
Y185039D02*
D03*
Y271654D02*
D03*
Y196850D02*
D03*
Y259842D02*
D03*
D30*
X157848Y391693D02*
D03*
X97848D02*
D03*
D31*
X167848D02*
D03*
X157848Y381693D02*
D03*
X167848D02*
D03*
X127848D02*
D03*
Y391693D02*
D03*
X117848Y381693D02*
D03*
Y391693D02*
D03*
X97848Y381693D02*
D03*
X107848Y391693D02*
D03*
Y381693D02*
D03*
M02*
