G04 Layer_Color=16711935*
%FSLAX25Y25*%
%MOIN*%
G70*
G01*
G75*
%ADD74C,0.00394*%
%ADD75R,0.11417X0.02436*%
D74*
X60827Y344193D02*
X69095D01*
X60827Y338878D02*
X69095D01*
Y344193D01*
X60827Y338878D02*
Y344193D01*
X189764Y344193D02*
X198032D01*
X189764Y338878D02*
X198032D01*
Y344193D01*
X189764Y338878D02*
Y344193D01*
X178544Y126575D02*
Y139173D01*
X171851Y126575D02*
Y139173D01*
Y126575D02*
X178544D01*
X171851Y139173D02*
X178544D01*
X162008Y126575D02*
Y139173D01*
X168701Y126575D02*
Y139173D01*
X162008D02*
X168701D01*
X162008Y126575D02*
X168701D01*
X158858Y126575D02*
Y139173D01*
X152165Y126575D02*
Y139173D01*
Y126575D02*
X158858D01*
X152165Y139173D02*
X158858D01*
X60433Y128543D02*
Y141142D01*
X53740Y128543D02*
Y141142D01*
Y128543D02*
X60433D01*
X53740Y141142D02*
X60433D01*
X43898Y128543D02*
Y141142D01*
X50590Y128543D02*
Y141142D01*
X43898D02*
X50590D01*
X43898Y128543D02*
X50590D01*
X40748Y128543D02*
Y141142D01*
X34055Y128543D02*
Y141142D01*
Y128543D02*
X40748D01*
X34055Y141142D02*
X40748D01*
X203819Y369311D02*
X210512D01*
X203819Y365768D02*
X210512D01*
Y369311D01*
X203819Y365768D02*
Y369311D01*
X50654Y365748D02*
X57346D01*
X50654Y369291D02*
X57346D01*
X50654Y365748D02*
Y369291D01*
X57346Y365748D02*
Y369291D01*
X226182Y119882D02*
Y137992D01*
X214764Y119882D02*
Y137992D01*
Y119882D02*
X226182D01*
X214764Y137992D02*
X226182D01*
X97245Y119882D02*
Y137992D01*
X85827Y119882D02*
Y137992D01*
Y119882D02*
X97245D01*
X85827Y137992D02*
X97245D01*
D75*
X220473Y121274D02*
D03*
X91536Y121274D02*
D03*
M02*
