G04 Layer_Physical_Order=1*
G04 Layer_Color=255*
%FSLAX25Y25*%
%MOIN*%
G70*
G01*
G75*
%ADD10C,0.03937*%
%ADD11C,0.03150*%
%ADD12C,0.05906*%
%ADD13C,0.01969*%
%ADD14C,0.07874*%
%ADD15C,0.11811*%
%ADD16C,0.19685*%
%ADD17C,0.15748*%
%ADD18C,0.11811*%
%ADD19C,0.07500*%
%ADD20C,0.08000*%
%ADD21C,0.06500*%
%ADD22R,0.06299X0.06299*%
%ADD23C,0.07874*%
%ADD24C,0.13780*%
%ADD25C,0.07087*%
%ADD26R,0.05906X0.05906*%
%ADD27C,0.05906*%
%ADD28C,0.06299*%
%ADD29O,0.11811X0.07087*%
G04:AMPARAMS|DCode=30|XSize=62.99mil|YSize=70.87mil|CornerRadius=15.75mil|HoleSize=0mil|Usage=FLASHONLY|Rotation=180.000|XOffset=0mil|YOffset=0mil|HoleType=Round|Shape=RoundedRectangle|*
%AMROUNDEDRECTD30*
21,1,0.06299,0.03937,0,0,180.0*
21,1,0.03150,0.07087,0,0,180.0*
1,1,0.03150,-0.01575,0.01969*
1,1,0.03150,0.01575,0.01969*
1,1,0.03150,0.01575,-0.01969*
1,1,0.03150,-0.01575,-0.01969*
%
%ADD30ROUNDEDRECTD30*%
%ADD31O,0.06299X0.07087*%
%ADD32C,0.02598*%
%ADD33C,0.03150*%
G36*
X157087Y237205D02*
X156201Y237106D01*
X155217Y236910D01*
X154331Y236614D01*
X153642Y236319D01*
X153051Y236024D01*
X152559Y235728D01*
X152067Y235335D01*
X151575Y234941D01*
X147933Y238583D01*
X148721Y239272D01*
X149508Y239862D01*
X150295Y240354D01*
X151181Y240846D01*
X152067Y241240D01*
X152854Y241535D01*
X153740Y241831D01*
X154626Y242028D01*
X155118Y242126D01*
X155709Y242224D01*
X157087Y242323D01*
Y237205D01*
D02*
G37*
G36*
X159252Y242224D02*
X159843Y242126D01*
X160335Y242028D01*
X161221Y241831D01*
X162106Y241535D01*
X162894Y241240D01*
X163779Y240846D01*
X164665Y240354D01*
X165453Y239862D01*
X166240Y239272D01*
X167027Y238583D01*
X163386Y234941D01*
X162894Y235335D01*
X162402Y235728D01*
X161909Y236024D01*
X161319Y236319D01*
X160630Y236614D01*
X159744Y236910D01*
X158760Y237106D01*
X157874Y237205D01*
Y242323D01*
X159252Y242224D01*
D02*
G37*
G36*
X10335Y261713D02*
X10827Y261319D01*
X11319Y261024D01*
X11909Y260728D01*
X12598Y260433D01*
X13484Y260138D01*
X14469Y259941D01*
X15354Y259842D01*
Y254724D01*
X13976Y254823D01*
X13386Y254921D01*
X12894Y255020D01*
X12008Y255217D01*
X11122Y255512D01*
X10335Y255807D01*
X9449Y256201D01*
X8563Y256693D01*
X7776Y257185D01*
X6988Y257776D01*
X6201Y258465D01*
X9843Y262106D01*
X10335Y261713D01*
D02*
G37*
G36*
X171358Y226575D02*
X171260Y225984D01*
X171161Y225492D01*
X170965Y224606D01*
X170669Y223721D01*
X170374Y222933D01*
X169980Y222047D01*
X169488Y221161D01*
X168996Y220374D01*
X168405Y219587D01*
X167717Y218799D01*
X164075Y222441D01*
X164469Y222933D01*
X164862Y223425D01*
X165157Y223917D01*
X165453Y224508D01*
X165748Y225197D01*
X166043Y226083D01*
X166240Y227067D01*
X166339Y227953D01*
X171457D01*
X171358Y226575D01*
D02*
G37*
G36*
X150886Y234252D02*
X150492Y233760D01*
X150098Y233268D01*
X149803Y232776D01*
X149508Y232185D01*
X149213Y231496D01*
X148917Y230610D01*
X148721Y229626D01*
X148622Y228740D01*
X143504D01*
X143602Y230118D01*
X143701Y230709D01*
X143799Y231201D01*
X143996Y232087D01*
X144291Y232972D01*
X144587Y233760D01*
X144980Y234646D01*
X145472Y235531D01*
X145965Y236319D01*
X146555Y237106D01*
X147244Y237894D01*
X150886Y234252D01*
D02*
G37*
G36*
X168405Y237106D02*
X168996Y236319D01*
X169488Y235531D01*
X169980Y234646D01*
X170374Y233760D01*
X170669Y232972D01*
X170965Y232087D01*
X171161Y231201D01*
X171260Y230709D01*
X171358Y230118D01*
X171457Y228740D01*
X166339D01*
X166240Y229626D01*
X166043Y230610D01*
X165748Y231496D01*
X165453Y232185D01*
X165157Y232776D01*
X164862Y233268D01*
X164469Y233760D01*
X164075Y234252D01*
X167717Y237894D01*
X168405Y237106D01*
D02*
G37*
G36*
X6988Y267421D02*
X7185Y266437D01*
X7480Y265551D01*
X7776Y264862D01*
X8071Y264272D01*
X8366Y263779D01*
X8760Y263287D01*
X9154Y262795D01*
X5512Y259154D01*
X4823Y259941D01*
X4232Y260728D01*
X3740Y261516D01*
X3248Y262402D01*
X2854Y263287D01*
X2559Y264075D01*
X2264Y264961D01*
X2067Y265846D01*
X1969Y266339D01*
X1870Y266929D01*
X1772Y268307D01*
X6890D01*
X6988Y267421D01*
D02*
G37*
G36*
X29626Y266929D02*
X29528Y266339D01*
X29429Y265846D01*
X29232Y264961D01*
X28937Y264075D01*
X28642Y263287D01*
X28248Y262402D01*
X27756Y261516D01*
X27264Y260728D01*
X26673Y259941D01*
X25984Y259154D01*
X22343Y262795D01*
X22736Y263287D01*
X23130Y263779D01*
X23425Y264272D01*
X23720Y264862D01*
X24016Y265551D01*
X24311Y266437D01*
X24508Y267421D01*
X24606Y268307D01*
X29724D01*
X29626Y266929D01*
D02*
G37*
G36*
X148721Y267421D02*
X148917Y266437D01*
X149213Y265551D01*
X149508Y264862D01*
X149803Y264272D01*
X150098Y263779D01*
X150492Y263287D01*
X150886Y262795D01*
X147244Y259154D01*
X146555Y259941D01*
X145965Y260728D01*
X145472Y261516D01*
X144980Y262402D01*
X144587Y263287D01*
X144291Y264075D01*
X143996Y264961D01*
X143799Y265846D01*
X143701Y266339D01*
X143602Y266929D01*
X143504Y268307D01*
X148622D01*
X148721Y267421D01*
D02*
G37*
G36*
X25295Y258465D02*
X24508Y257776D01*
X23720Y257185D01*
X22933Y256693D01*
X22047Y256201D01*
X21161Y255807D01*
X20374Y255512D01*
X19488Y255217D01*
X18602Y255020D01*
X18110Y254921D01*
X17520Y254823D01*
X16142Y254724D01*
Y259842D01*
X17028Y259941D01*
X18012Y260138D01*
X18898Y260433D01*
X19587Y260728D01*
X20177Y261024D01*
X20669Y261319D01*
X21161Y261713D01*
X21654Y262106D01*
X25295Y258465D01*
D02*
G37*
G36*
X152067Y261713D02*
X152559Y261319D01*
X153051Y261024D01*
X153642Y260728D01*
X154331Y260433D01*
X155217Y260138D01*
X156201Y259941D01*
X157087Y259842D01*
Y254724D01*
X155709Y254823D01*
X155118Y254921D01*
X154626Y255020D01*
X153740Y255217D01*
X152854Y255512D01*
X152067Y255807D01*
X151181Y256201D01*
X150295Y256693D01*
X149508Y257185D01*
X148721Y257776D01*
X147933Y258465D01*
X151575Y262106D01*
X152067Y261713D01*
D02*
G37*
G36*
X167027Y258465D02*
X166240Y257776D01*
X165453Y257185D01*
X164665Y256693D01*
X163779Y256201D01*
X162894Y255807D01*
X162106Y255512D01*
X161221Y255217D01*
X160335Y255020D01*
X159843Y254921D01*
X159252Y254823D01*
X157874Y254724D01*
Y259842D01*
X158760Y259941D01*
X159744Y260138D01*
X160630Y260433D01*
X161319Y260728D01*
X161909Y261024D01*
X162402Y261319D01*
X162894Y261713D01*
X163386Y262106D01*
X167027Y258465D01*
D02*
G37*
G36*
X54232Y33169D02*
X54429Y32185D01*
X54724Y31299D01*
X55020Y30610D01*
X55315Y30020D01*
X55610Y29528D01*
X56004Y29035D01*
X56398Y28543D01*
X52756Y24902D01*
X52067Y25689D01*
X51476Y26476D01*
X50984Y27264D01*
X50492Y28150D01*
X50098Y29035D01*
X49803Y29823D01*
X49508Y30709D01*
X49311Y31594D01*
X49213Y32087D01*
X49114Y32677D01*
X49016Y34055D01*
X54134D01*
X54232Y33169D01*
D02*
G37*
G36*
X76870Y32677D02*
X76772Y32087D01*
X76673Y31594D01*
X76476Y30709D01*
X76181Y29823D01*
X75886Y29035D01*
X75492Y28150D01*
X75000Y27264D01*
X74508Y26476D01*
X73917Y25689D01*
X73228Y24902D01*
X69587Y28543D01*
X69980Y29035D01*
X70374Y29528D01*
X70669Y30020D01*
X70965Y30610D01*
X71260Y31299D01*
X71555Y32185D01*
X71752Y33169D01*
X71850Y34055D01*
X76968D01*
X76870Y32677D01*
D02*
G37*
G36*
X56398Y40354D02*
X56004Y39862D01*
X55610Y39370D01*
X55315Y38878D01*
X55020Y38287D01*
X54724Y37598D01*
X54429Y36713D01*
X54232Y35728D01*
X54134Y34843D01*
X49016D01*
X49114Y36220D01*
X49213Y36811D01*
X49311Y37303D01*
X49508Y38189D01*
X49803Y39075D01*
X50098Y39862D01*
X50492Y40748D01*
X50984Y41634D01*
X51476Y42421D01*
X52067Y43209D01*
X52756Y43996D01*
X56398Y40354D01*
D02*
G37*
G36*
X26641Y248631D02*
X28460Y247878D01*
X30098Y246783D01*
X31491Y245390D01*
X32586Y243753D01*
X33339Y241933D01*
X33724Y240001D01*
Y239016D01*
Y222355D01*
Y221394D01*
X33349Y219509D01*
X32613Y217734D01*
X31545Y216136D01*
X30187Y214777D01*
X28589Y213709D01*
X26813Y212973D01*
X24928Y212598D01*
X23967D01*
X23967Y103194D01*
X23724Y85630D01*
X40354Y66929D01*
Y19685D01*
Y19103D01*
X40127Y17963D01*
X39682Y16888D01*
X39036Y15921D01*
X38213Y15098D01*
X37246Y14452D01*
X36171Y14006D01*
X35030Y13780D01*
X5906D01*
X5421Y13780D01*
X4470Y13969D01*
X3574Y14340D01*
X2768Y14878D01*
X2083Y15564D01*
X1544Y16370D01*
X1173Y17265D01*
X984Y18216D01*
X984Y18701D01*
Y240551D01*
Y241385D01*
X1309Y243020D01*
X1948Y244561D01*
X2874Y245947D01*
X4053Y247126D01*
X5439Y248052D01*
X6980Y248691D01*
X8615Y249016D01*
X24709D01*
X26641Y248631D01*
D02*
G37*
G36*
X57579Y27461D02*
X58071Y27067D01*
X58563Y26772D01*
X59153Y26476D01*
X59842Y26181D01*
X60728Y25886D01*
X61713Y25689D01*
X62598Y25591D01*
Y20472D01*
X61221Y20571D01*
X60630Y20669D01*
X60138Y20768D01*
X59252Y20965D01*
X58366Y21260D01*
X57579Y21555D01*
X56693Y21949D01*
X55807Y22441D01*
X55020Y22933D01*
X54232Y23524D01*
X53445Y24213D01*
X57087Y27854D01*
X57579Y27461D01*
D02*
G37*
G36*
X72539Y24213D02*
X71752Y23524D01*
X70965Y22933D01*
X70177Y22441D01*
X69291Y21949D01*
X68405Y21555D01*
X67618Y21260D01*
X66732Y20965D01*
X65847Y20768D01*
X65354Y20669D01*
X64764Y20571D01*
X63386Y20472D01*
Y25591D01*
X64272Y25689D01*
X65256Y25886D01*
X66142Y26181D01*
X66831Y26476D01*
X67421Y26772D01*
X67913Y27067D01*
X68405Y27461D01*
X68898Y27854D01*
X72539Y24213D01*
D02*
G37*
G36*
X152067Y221358D02*
X152559Y220965D01*
X153051Y220669D01*
X153642Y220374D01*
X154331Y220079D01*
X155217Y219783D01*
X156201Y219587D01*
X157087Y219488D01*
Y214370D01*
X155709Y214469D01*
X155118Y214567D01*
X154626Y214665D01*
X153740Y214862D01*
X152854Y215158D01*
X152067Y215453D01*
X151181Y215846D01*
X150295Y216339D01*
X149508Y216831D01*
X148721Y217421D01*
X147933Y218110D01*
X151575Y221752D01*
X152067Y221358D01*
D02*
G37*
G36*
X167027Y218110D02*
X166240Y217421D01*
X165453Y216831D01*
X164665Y216339D01*
X163779Y215846D01*
X162894Y215453D01*
X162106Y215158D01*
X161221Y214862D01*
X160335Y214665D01*
X159843Y214567D01*
X159252Y214469D01*
X157874Y214370D01*
Y219488D01*
X158760Y219587D01*
X159744Y219783D01*
X160630Y220079D01*
X161319Y220374D01*
X161909Y220669D01*
X162402Y220965D01*
X162894Y221358D01*
X163386Y221752D01*
X167027Y218110D01*
D02*
G37*
G36*
X148721Y227067D02*
X148917Y226083D01*
X149213Y225197D01*
X149508Y224508D01*
X149803Y223917D01*
X150098Y223425D01*
X150492Y222933D01*
X150886Y222441D01*
X147244Y218799D01*
X146555Y219587D01*
X145965Y220374D01*
X145472Y221161D01*
X144980Y222047D01*
X144587Y222933D01*
X144291Y223721D01*
X143996Y224606D01*
X143799Y225492D01*
X143701Y225984D01*
X143602Y226575D01*
X143504Y227953D01*
X148622D01*
X148721Y227067D01*
D02*
G37*
G36*
X73917Y43209D02*
X74508Y42421D01*
X75000Y41634D01*
X75492Y40748D01*
X75886Y39862D01*
X76181Y39075D01*
X76476Y38189D01*
X76673Y37303D01*
X76772Y36811D01*
X76870Y36220D01*
X76968Y34843D01*
X71850D01*
X71752Y35728D01*
X71555Y36713D01*
X71260Y37598D01*
X70965Y38287D01*
X70669Y38878D01*
X70374Y39370D01*
X69980Y39862D01*
X69587Y40354D01*
X73228Y43996D01*
X73917Y43209D01*
D02*
G37*
G36*
X62598Y43307D02*
X61713Y43209D01*
X60728Y43012D01*
X59842Y42717D01*
X59153Y42421D01*
X58563Y42126D01*
X58071Y41831D01*
X57579Y41437D01*
X57087Y41043D01*
X53445Y44685D01*
X54232Y45374D01*
X55020Y45965D01*
X55807Y46457D01*
X56693Y46949D01*
X57579Y47343D01*
X58366Y47638D01*
X59252Y47933D01*
X60138Y48130D01*
X60630Y48228D01*
X61221Y48327D01*
X62598Y48425D01*
Y43307D01*
D02*
G37*
G36*
X64764Y48327D02*
X65354Y48228D01*
X65847Y48130D01*
X66732Y47933D01*
X67618Y47638D01*
X68405Y47343D01*
X69291Y46949D01*
X70177Y46457D01*
X70965Y45965D01*
X71752Y45374D01*
X72539Y44685D01*
X68898Y41043D01*
X68405Y41437D01*
X67913Y41831D01*
X67421Y42126D01*
X66831Y42421D01*
X66142Y42717D01*
X65256Y43012D01*
X64272Y43209D01*
X63386Y43307D01*
Y48425D01*
X64764Y48327D01*
D02*
G37*
G36*
X171358Y266929D02*
X171260Y266339D01*
X171161Y265846D01*
X170965Y264961D01*
X170669Y264075D01*
X170374Y263287D01*
X169980Y262402D01*
X169488Y261516D01*
X168996Y260728D01*
X168405Y259941D01*
X167717Y259154D01*
X164075Y262795D01*
X164469Y263287D01*
X164862Y263779D01*
X165157Y264272D01*
X165453Y264862D01*
X165748Y265551D01*
X166043Y266437D01*
X166240Y267421D01*
X166339Y268307D01*
X171457D01*
X171358Y266929D01*
D02*
G37*
G36*
X256004Y376181D02*
X255906Y375591D01*
X255807Y375098D01*
X255610Y374213D01*
X255315Y373327D01*
X255020Y372539D01*
X254626Y371654D01*
X254134Y370768D01*
X253642Y369980D01*
X253051Y369193D01*
X252362Y368406D01*
X248721Y372047D01*
X249114Y372539D01*
X249508Y373031D01*
X249803Y373524D01*
X250098Y374114D01*
X250394Y374803D01*
X250689Y375689D01*
X250886Y376673D01*
X250984Y377559D01*
X256102D01*
X256004Y376181D01*
D02*
G37*
G36*
X9154Y383858D02*
X8760Y383366D01*
X8366Y382874D01*
X8071Y382382D01*
X7776Y381791D01*
X7480Y381102D01*
X7185Y380217D01*
X6988Y379232D01*
X6890Y378346D01*
X1772D01*
X1870Y379724D01*
X1969Y380315D01*
X2067Y380807D01*
X2264Y381693D01*
X2559Y382579D01*
X2854Y383366D01*
X3248Y384252D01*
X3740Y385138D01*
X4232Y385925D01*
X4823Y386713D01*
X5512Y387500D01*
X9154Y383858D01*
D02*
G37*
G36*
X26673Y386713D02*
X27264Y385925D01*
X27756Y385138D01*
X28248Y384252D01*
X28642Y383366D01*
X28937Y382579D01*
X29232Y381693D01*
X29429Y380807D01*
X29528Y380315D01*
X29626Y379724D01*
X29724Y378346D01*
X24606D01*
X24508Y379232D01*
X24311Y380217D01*
X24016Y381102D01*
X23720Y381791D01*
X23425Y382382D01*
X23130Y382874D01*
X22736Y383366D01*
X22343Y383858D01*
X25984Y387500D01*
X26673Y386713D01*
D02*
G37*
G36*
X6988Y376673D02*
X7185Y375689D01*
X7480Y374803D01*
X7776Y374114D01*
X8071Y373524D01*
X8366Y373031D01*
X8760Y372539D01*
X9154Y372047D01*
X5512Y368406D01*
X4823Y369193D01*
X4232Y369980D01*
X3740Y370768D01*
X3248Y371654D01*
X2854Y372539D01*
X2559Y373327D01*
X2264Y374213D01*
X2067Y375098D01*
X1969Y375591D01*
X1870Y376181D01*
X1772Y377559D01*
X6890D01*
X6988Y376673D01*
D02*
G37*
G36*
X29626Y376181D02*
X29528Y375591D01*
X29429Y375098D01*
X29232Y374213D01*
X28937Y373327D01*
X28642Y372539D01*
X28248Y371654D01*
X27756Y370768D01*
X27264Y369980D01*
X26673Y369193D01*
X25984Y368406D01*
X22343Y372047D01*
X22736Y372539D01*
X23130Y373031D01*
X23425Y373524D01*
X23720Y374114D01*
X24016Y374803D01*
X24311Y375689D01*
X24508Y376673D01*
X24606Y377559D01*
X29724D01*
X29626Y376181D01*
D02*
G37*
G36*
X233366Y376673D02*
X233563Y375689D01*
X233858Y374803D01*
X234154Y374114D01*
X234449Y373524D01*
X234744Y373031D01*
X235138Y372539D01*
X235531Y372047D01*
X231890Y368406D01*
X231201Y369193D01*
X230610Y369980D01*
X230118Y370768D01*
X229626Y371654D01*
X229232Y372539D01*
X228937Y373327D01*
X228642Y374213D01*
X228445Y375098D01*
X228346Y375591D01*
X228248Y376181D01*
X228150Y377559D01*
X233268D01*
X233366Y376673D01*
D02*
G37*
G36*
X17520Y391831D02*
X18110Y391732D01*
X18602Y391634D01*
X19488Y391437D01*
X20374Y391142D01*
X21161Y390846D01*
X22047Y390453D01*
X22933Y389961D01*
X23720Y389469D01*
X24508Y388878D01*
X25295Y388189D01*
X21654Y384547D01*
X21161Y384941D01*
X20669Y385335D01*
X20177Y385630D01*
X19587Y385925D01*
X18898Y386221D01*
X18012Y386516D01*
X17028Y386713D01*
X16142Y386811D01*
Y391929D01*
X17520Y391831D01*
D02*
G37*
G36*
X241732Y386811D02*
X240846Y386713D01*
X239862Y386516D01*
X238976Y386221D01*
X238287Y385925D01*
X237697Y385630D01*
X237205Y385335D01*
X236713Y384941D01*
X236221Y384547D01*
X232579Y388189D01*
X233366Y388878D01*
X234154Y389469D01*
X234941Y389961D01*
X235827Y390453D01*
X236713Y390846D01*
X237500Y391142D01*
X238386Y391437D01*
X239272Y391634D01*
X239764Y391732D01*
X240354Y391831D01*
X241732Y391929D01*
Y386811D01*
D02*
G37*
G36*
X243898Y391831D02*
X244488Y391732D01*
X244980Y391634D01*
X245866Y391437D01*
X246752Y391142D01*
X247539Y390846D01*
X248425Y390453D01*
X249311Y389961D01*
X250098Y389469D01*
X250886Y388878D01*
X251673Y388189D01*
X248031Y384547D01*
X247539Y384941D01*
X247047Y385335D01*
X246555Y385630D01*
X245965Y385925D01*
X245276Y386221D01*
X244390Y386516D01*
X243406Y386713D01*
X242520Y386811D01*
Y391929D01*
X243898Y391831D01*
D02*
G37*
G36*
X235531Y383858D02*
X235138Y383366D01*
X234744Y382874D01*
X234449Y382382D01*
X234154Y381791D01*
X233858Y381102D01*
X233563Y380217D01*
X233366Y379232D01*
X233268Y378346D01*
X228150D01*
X228248Y379724D01*
X228346Y380315D01*
X228445Y380807D01*
X228642Y381693D01*
X228937Y382579D01*
X229232Y383366D01*
X229626Y384252D01*
X230118Y385138D01*
X230610Y385925D01*
X231201Y386713D01*
X231890Y387500D01*
X235531Y383858D01*
D02*
G37*
G36*
X253051Y386713D02*
X253642Y385925D01*
X254134Y385138D01*
X254626Y384252D01*
X255020Y383366D01*
X255315Y382579D01*
X255610Y381693D01*
X255807Y380807D01*
X255906Y380315D01*
X256004Y379724D01*
X256102Y378346D01*
X250984D01*
X250886Y379232D01*
X250689Y380217D01*
X250394Y381102D01*
X250098Y381791D01*
X249803Y382382D01*
X249508Y382874D01*
X249114Y383366D01*
X248721Y383858D01*
X252362Y387500D01*
X253051Y386713D01*
D02*
G37*
G36*
X15354Y386811D02*
X14469Y386713D01*
X13484Y386516D01*
X12598Y386221D01*
X11909Y385925D01*
X11319Y385630D01*
X10827Y385335D01*
X10335Y384941D01*
X9843Y384547D01*
X6201Y388189D01*
X6988Y388878D01*
X7776Y389469D01*
X8563Y389961D01*
X9449Y390453D01*
X10335Y390846D01*
X11122Y391142D01*
X12008Y391437D01*
X12894Y391634D01*
X13386Y391732D01*
X13976Y391831D01*
X15354Y391929D01*
Y386811D01*
D02*
G37*
G36*
X168405Y277461D02*
X168996Y276673D01*
X169488Y275886D01*
X169980Y275000D01*
X170374Y274114D01*
X170669Y273327D01*
X170965Y272441D01*
X171161Y271555D01*
X171260Y271063D01*
X171358Y270472D01*
X171457Y269094D01*
X166339D01*
X166240Y269980D01*
X166043Y270965D01*
X165748Y271850D01*
X165453Y272539D01*
X165157Y273130D01*
X164862Y273622D01*
X164469Y274114D01*
X164075Y274606D01*
X167717Y278248D01*
X168405Y277461D01*
D02*
G37*
G36*
X15354Y277559D02*
X14469Y277461D01*
X13484Y277264D01*
X12598Y276969D01*
X11909Y276673D01*
X11319Y276378D01*
X10827Y276083D01*
X10335Y275689D01*
X9843Y275295D01*
X6201Y278937D01*
X6988Y279626D01*
X7776Y280217D01*
X8563Y280709D01*
X9449Y281201D01*
X10335Y281594D01*
X11122Y281890D01*
X12008Y282185D01*
X12894Y282382D01*
X13386Y282480D01*
X13976Y282579D01*
X15354Y282677D01*
Y277559D01*
D02*
G37*
G36*
X17520Y282579D02*
X18110Y282480D01*
X18602Y282382D01*
X19488Y282185D01*
X20374Y281890D01*
X21161Y281594D01*
X22047Y281201D01*
X22933Y280709D01*
X23720Y280217D01*
X24508Y279626D01*
X25295Y278937D01*
X21654Y275295D01*
X21161Y275689D01*
X20669Y276083D01*
X20177Y276378D01*
X19587Y276673D01*
X18898Y276969D01*
X18012Y277264D01*
X17028Y277461D01*
X16142Y277559D01*
Y282677D01*
X17520Y282579D01*
D02*
G37*
G36*
X9154Y274606D02*
X8760Y274114D01*
X8366Y273622D01*
X8071Y273130D01*
X7776Y272539D01*
X7480Y271850D01*
X7185Y270965D01*
X6988Y269980D01*
X6890Y269094D01*
X1772D01*
X1870Y270472D01*
X1969Y271063D01*
X2067Y271555D01*
X2264Y272441D01*
X2559Y273327D01*
X2854Y274114D01*
X3248Y275000D01*
X3740Y275886D01*
X4232Y276673D01*
X4823Y277461D01*
X5512Y278248D01*
X9154Y274606D01*
D02*
G37*
G36*
X26673Y277461D02*
X27264Y276673D01*
X27756Y275886D01*
X28248Y275000D01*
X28642Y274114D01*
X28937Y273327D01*
X29232Y272441D01*
X29429Y271555D01*
X29528Y271063D01*
X29626Y270472D01*
X29724Y269094D01*
X24606D01*
X24508Y269980D01*
X24311Y270965D01*
X24016Y271850D01*
X23720Y272539D01*
X23425Y273130D01*
X23130Y273622D01*
X22736Y274114D01*
X22343Y274606D01*
X25984Y278248D01*
X26673Y277461D01*
D02*
G37*
G36*
X150886Y274606D02*
X150492Y274114D01*
X150098Y273622D01*
X149803Y273130D01*
X149508Y272539D01*
X149213Y271850D01*
X148917Y270965D01*
X148721Y269980D01*
X148622Y269094D01*
X143504D01*
X143602Y270472D01*
X143701Y271063D01*
X143799Y271555D01*
X143996Y272441D01*
X144291Y273327D01*
X144587Y274114D01*
X144980Y275000D01*
X145472Y275886D01*
X145965Y276673D01*
X146555Y277461D01*
X147244Y278248D01*
X150886Y274606D01*
D02*
G37*
G36*
X25295Y367717D02*
X24508Y367028D01*
X23720Y366437D01*
X22933Y365945D01*
X22047Y365453D01*
X21161Y365059D01*
X20374Y364764D01*
X19488Y364469D01*
X18602Y364272D01*
X18110Y364173D01*
X17520Y364075D01*
X16142Y363976D01*
Y369094D01*
X17028Y369193D01*
X18012Y369390D01*
X18898Y369685D01*
X19587Y369980D01*
X20177Y370276D01*
X20669Y370571D01*
X21161Y370965D01*
X21654Y371358D01*
X25295Y367717D01*
D02*
G37*
G36*
X236713Y370965D02*
X237205Y370571D01*
X237697Y370276D01*
X238287Y369980D01*
X238976Y369685D01*
X239862Y369390D01*
X240846Y369193D01*
X241732Y369094D01*
Y363976D01*
X240354Y364075D01*
X239764Y364173D01*
X239272Y364272D01*
X238386Y364469D01*
X237500Y364764D01*
X236713Y365059D01*
X235827Y365453D01*
X234941Y365945D01*
X234154Y366437D01*
X233366Y367028D01*
X232579Y367717D01*
X236221Y371358D01*
X236713Y370965D01*
D02*
G37*
G36*
X251673Y367717D02*
X250886Y367028D01*
X250098Y366437D01*
X249311Y365945D01*
X248425Y365453D01*
X247539Y365059D01*
X246752Y364764D01*
X245866Y364469D01*
X244980Y364272D01*
X244488Y364173D01*
X243898Y364075D01*
X242520Y363976D01*
Y369094D01*
X243406Y369193D01*
X244390Y369390D01*
X245276Y369685D01*
X245965Y369980D01*
X246555Y370276D01*
X247047Y370571D01*
X247539Y370965D01*
X248031Y371358D01*
X251673Y367717D01*
D02*
G37*
G36*
X157087Y277559D02*
X156201Y277461D01*
X155217Y277264D01*
X154331Y276969D01*
X153642Y276673D01*
X153051Y276378D01*
X152559Y276083D01*
X152067Y275689D01*
X151575Y275295D01*
X147933Y278937D01*
X148721Y279626D01*
X149508Y280217D01*
X150295Y280709D01*
X151181Y281201D01*
X152067Y281594D01*
X152854Y281890D01*
X153740Y282185D01*
X154626Y282382D01*
X155118Y282480D01*
X155709Y282579D01*
X157087Y282677D01*
Y277559D01*
D02*
G37*
G36*
X159252Y282579D02*
X159843Y282480D01*
X160335Y282382D01*
X161221Y282185D01*
X162106Y281890D01*
X162894Y281594D01*
X163779Y281201D01*
X164665Y280709D01*
X165453Y280217D01*
X166240Y279626D01*
X167027Y278937D01*
X163386Y275295D01*
X162894Y275689D01*
X162402Y276083D01*
X161909Y276378D01*
X161319Y276673D01*
X160630Y276969D01*
X159744Y277264D01*
X158760Y277461D01*
X157874Y277559D01*
Y282677D01*
X159252Y282579D01*
D02*
G37*
G36*
X10335Y370965D02*
X10827Y370571D01*
X11319Y370276D01*
X11909Y369980D01*
X12598Y369685D01*
X13484Y369390D01*
X14469Y369193D01*
X15354Y369094D01*
Y363976D01*
X13976Y364075D01*
X13386Y364173D01*
X12894Y364272D01*
X12008Y364469D01*
X11122Y364764D01*
X10335Y365059D01*
X9449Y365453D01*
X8563Y365945D01*
X7776Y366437D01*
X6988Y367028D01*
X6201Y367717D01*
X9843Y371358D01*
X10335Y370965D01*
D02*
G37*
D10*
X157848Y356757D02*
Y381693D01*
X167848Y356037D02*
Y381693D01*
X178000Y249000D02*
Y388142D01*
X167848Y391693D02*
X168399Y391142D01*
X175000D01*
X178000Y388142D01*
X157848Y389934D02*
X158727Y390813D01*
X157848Y391693D02*
Y399000D01*
X158848Y400000D01*
X190000D01*
X198000Y392000D01*
X250000Y19685D02*
Y36417D01*
X209646Y76772D02*
X250000Y36417D01*
X175197Y76772D02*
X209646D01*
X62992Y61811D02*
Y65944D01*
X157480Y94488D02*
X175197Y76772D01*
X62992Y65944D02*
X91536Y94488D01*
X157480D01*
X250000Y19685D02*
X251457Y18228D01*
Y8858D02*
Y18228D01*
X112205Y128937D02*
X137000Y153732D01*
Y292268D01*
X150886Y306153D01*
X106300Y197736D02*
X128425Y219862D01*
X242126Y128937D02*
X250000Y136811D01*
X219000Y245000D02*
Y319013D01*
Y245000D02*
X250000Y214000D01*
Y136811D02*
Y214000D01*
X128425Y219862D02*
Y327334D01*
X157848Y356757D01*
X150886Y306153D02*
Y339075D01*
X167848Y356037D01*
X73000Y360000D02*
X115800D01*
X127848Y372047D01*
X198000Y340013D02*
X219000Y319013D01*
X198000Y340013D02*
Y392000D01*
X172441Y163976D02*
X180000Y171535D01*
Y247000D01*
X178000Y249000D02*
X180000Y247000D01*
D11*
X117848Y374616D02*
Y381693D01*
X91984Y149016D02*
X102363D01*
X42000Y199000D02*
X91984Y149016D01*
X236000Y313000D02*
Y343000D01*
X214835Y377293D02*
X219000D01*
X211000Y373459D02*
X214835Y377293D01*
X211000Y361000D02*
Y373459D01*
X42000Y325000D02*
X51000Y334000D01*
X42000Y199000D02*
Y325000D01*
X41803Y378000D02*
X70181D01*
X39508Y377539D02*
X50461D01*
X51000Y377000D01*
Y334000D02*
Y377000D01*
X70181Y378000D02*
X80661Y367520D01*
X110751D01*
X117848Y374616D01*
X211000Y361000D02*
X217000Y355000D01*
X224000D01*
X236000Y343000D01*
D12*
X127848Y381693D02*
Y385827D01*
Y372047D02*
Y381693D01*
X189000Y310000D02*
Y364173D01*
X209000Y132142D02*
X232284Y108858D01*
X209000Y132142D02*
Y290000D01*
X189000Y310000D02*
X209000Y290000D01*
D13*
X102000Y353000D02*
X114000Y341000D01*
X133000D01*
D14*
X102363Y108858D02*
X232284D01*
D15*
X87402Y128937D02*
X112205D01*
X52363Y93898D02*
X87402Y128937D01*
X106300Y260728D02*
Y272539D01*
Y292224D01*
X232283Y259842D02*
Y271654D01*
Y291339D01*
Y165354D02*
Y185039D01*
Y196850D01*
D16*
X106300Y166240D02*
Y185039D01*
Y196850D01*
Y197736D01*
D17*
X157480Y268701D02*
D03*
X242126Y377953D02*
D03*
X15748D02*
D03*
X64961Y233268D02*
D03*
Y276575D02*
D03*
X15748Y228346D02*
D03*
X62992Y34449D02*
D03*
X192914Y276575D02*
D03*
Y233268D02*
D03*
X23315Y38632D02*
D03*
X62685D02*
D03*
X157480Y228346D02*
D03*
X15748Y268701D02*
D03*
D18*
X152756Y61811D02*
D03*
X192126D02*
D03*
X23622D02*
D03*
X62992D02*
D03*
D19*
X117126Y23622D02*
D03*
Y78622D02*
D03*
X227362Y23622D02*
D03*
Y78622D02*
D03*
D20*
X94488Y18701D02*
D03*
Y78701D02*
D03*
X250000Y19685D02*
D03*
Y79685D02*
D03*
D21*
X98425Y9843D02*
D03*
X128425D02*
D03*
X251457Y8858D02*
D03*
X221457D02*
D03*
D22*
X219000Y367293D02*
D03*
X39508Y367539D02*
D03*
D23*
X8859Y310039D02*
D03*
X119095D02*
D03*
X8859Y349410D02*
D03*
X119095D02*
D03*
X159449Y302165D02*
D03*
X228347D02*
D03*
X166339Y341535D02*
D03*
X221457D02*
D03*
X91536D02*
D03*
X36418D02*
D03*
X98426Y302165D02*
D03*
X29528D02*
D03*
X138780Y310039D02*
D03*
X249016D02*
D03*
X138780Y349410D02*
D03*
X249016D02*
D03*
D24*
X182284Y93898D02*
D03*
X242126Y128937D02*
D03*
X172441Y163976D02*
D03*
X52363Y93898D02*
D03*
X112205Y128937D02*
D03*
X42520Y163976D02*
D03*
D25*
X232284Y149016D02*
D03*
Y108858D02*
D03*
X102363Y149016D02*
D03*
Y108858D02*
D03*
D26*
X97848Y391693D02*
D03*
D27*
Y381693D02*
D03*
X107848Y391693D02*
D03*
Y381693D02*
D03*
X117848Y391693D02*
D03*
Y381693D02*
D03*
X127848Y391693D02*
D03*
Y381693D02*
D03*
X137848Y391693D02*
D03*
Y381693D02*
D03*
X147848Y391693D02*
D03*
Y381693D02*
D03*
X157848Y391693D02*
D03*
Y381693D02*
D03*
X167848Y391693D02*
D03*
Y381693D02*
D03*
D28*
X219000Y377293D02*
D03*
X39508Y377539D02*
D03*
D29*
X232283Y165354D02*
D03*
Y291339D02*
D03*
Y185039D02*
D03*
Y271654D02*
D03*
Y196850D02*
D03*
Y259842D02*
D03*
X106300Y165354D02*
D03*
Y291339D02*
D03*
Y185039D02*
D03*
Y271654D02*
D03*
Y196850D02*
D03*
Y259842D02*
D03*
D30*
X157848Y391693D02*
D03*
X97848D02*
D03*
D31*
X167848D02*
D03*
X157848Y381693D02*
D03*
X167848D02*
D03*
X127848D02*
D03*
Y391693D02*
D03*
X117848Y381693D02*
D03*
Y391693D02*
D03*
X97848Y381693D02*
D03*
X107848Y391693D02*
D03*
Y381693D02*
D03*
D32*
X161811Y258268D02*
D03*
X147047Y264370D02*
D03*
X153150Y279134D02*
D03*
X167913Y273031D02*
D03*
X147047D02*
D03*
X161811Y279134D02*
D03*
X167913Y264370D02*
D03*
X153150Y258268D02*
D03*
X246457Y367520D02*
D03*
X231693Y373622D02*
D03*
X237795Y388386D02*
D03*
X252559Y382283D02*
D03*
X231693D02*
D03*
X246457Y388386D02*
D03*
X252559Y373622D02*
D03*
X237795Y367520D02*
D03*
X20079D02*
D03*
X5315Y373622D02*
D03*
X11417Y388386D02*
D03*
X26181Y382283D02*
D03*
X5315D02*
D03*
X20079Y388386D02*
D03*
X26181Y373622D02*
D03*
X11417Y367520D02*
D03*
Y217913D02*
D03*
X26181Y224016D02*
D03*
X20079Y238779D02*
D03*
X5315Y232677D02*
D03*
X26181D02*
D03*
X11417Y238779D02*
D03*
X5315Y224016D02*
D03*
X20079Y217913D02*
D03*
X67323Y24016D02*
D03*
X52559Y30118D02*
D03*
X58661Y44882D02*
D03*
X73425Y38780D02*
D03*
X52559D02*
D03*
X67323Y44882D02*
D03*
X73425Y30118D02*
D03*
X58661Y24016D02*
D03*
X161811Y217913D02*
D03*
X147047Y224016D02*
D03*
X153150Y238779D02*
D03*
X167913Y232677D02*
D03*
X147047D02*
D03*
X161811Y238779D02*
D03*
X167913Y224016D02*
D03*
X153150Y217913D02*
D03*
X20079Y258268D02*
D03*
X5315Y264370D02*
D03*
X11417Y279134D02*
D03*
X26181Y273031D02*
D03*
X5315D02*
D03*
X20079Y279134D02*
D03*
X26181Y264370D02*
D03*
X11417Y258268D02*
D03*
D33*
X157480Y94488D02*
D03*
X188000Y364830D02*
D03*
X133000Y341000D02*
D03*
X73000Y360000D02*
D03*
X236000Y313000D02*
D03*
X102000Y353000D02*
D03*
M02*
