G04 Layer_Color=16711935*
%FSLAX25Y25*%
%MOIN*%
G70*
G01*
G75*
%ADD10C,0.03937*%
%ADD49C,0.16548*%
%ADD50C,0.12611*%
%ADD51C,0.08300*%
%ADD52C,0.08800*%
%ADD53C,0.07300*%
%ADD54R,0.07099X0.07099*%
%ADD55C,0.08674*%
%ADD56C,0.14579*%
%ADD57C,0.07887*%
%ADD58C,0.00800*%
%ADD59R,0.06706X0.06706*%
%ADD60C,0.06706*%
%ADD61C,0.07099*%
%ADD62O,0.12611X0.07887*%
G04:AMPARAMS|DCode=63|XSize=70.99mil|YSize=78.87mil|CornerRadius=19.75mil|HoleSize=0mil|Usage=FLASHONLY|Rotation=180.000|XOffset=0mil|YOffset=0mil|HoleType=Round|Shape=RoundedRectangle|*
%AMROUNDEDRECTD63*
21,1,0.07099,0.03937,0,0,180.0*
21,1,0.03150,0.07887,0,0,180.0*
1,1,0.03950,-0.01575,0.01969*
1,1,0.03950,0.01575,0.01969*
1,1,0.03950,0.01575,-0.01969*
1,1,0.03950,-0.01575,-0.01969*
%
%ADD63ROUNDEDRECTD63*%
%ADD64O,0.07099X0.07887*%
%ADD65C,0.03398*%
%ADD66C,0.03950*%
%ADD67R,0.04934X0.06115*%
%ADD68R,0.07690X0.04737*%
%ADD69R,0.03950X0.04147*%
%ADD70R,0.06902X0.10052*%
%ADD71C,0.28359*%
D10*
X72835Y233268D02*
X185039D01*
X28543Y221457D02*
X206693D01*
X8858Y245079D02*
X205709D01*
X18701Y24016D02*
Y217520D01*
X7677Y225000D02*
X8859Y24016D01*
D49*
X64961Y233268D02*
D03*
Y276575D02*
D03*
X192914D02*
D03*
Y233268D02*
D03*
X23315Y38632D02*
D03*
X62685D02*
D03*
D50*
X152756Y61811D02*
D03*
X192126D02*
D03*
X23622D02*
D03*
X62992D02*
D03*
D51*
X117126Y23622D02*
D03*
Y78622D02*
D03*
X227362Y23622D02*
D03*
Y78622D02*
D03*
D52*
X94488Y18701D02*
D03*
Y78701D02*
D03*
X250000Y19685D02*
D03*
Y79685D02*
D03*
D53*
X98425Y9843D02*
D03*
X128425D02*
D03*
X251457Y8858D02*
D03*
X221457D02*
D03*
D54*
X219000Y367293D02*
D03*
X39508Y367539D02*
D03*
D55*
X8859Y310039D02*
D03*
X119095D02*
D03*
X8859Y349410D02*
D03*
X119095D02*
D03*
X159449Y302165D02*
D03*
X228347D02*
D03*
X166339Y341535D02*
D03*
X221457D02*
D03*
X91536D02*
D03*
X36418D02*
D03*
X98426Y302165D02*
D03*
X29528D02*
D03*
X138780Y310039D02*
D03*
X249016D02*
D03*
X138780Y349410D02*
D03*
X249016D02*
D03*
D56*
X182284Y93898D02*
D03*
X242126Y128937D02*
D03*
X172441Y163976D02*
D03*
X52363Y93898D02*
D03*
X112205Y128937D02*
D03*
X42520Y163976D02*
D03*
D57*
X232284Y149016D02*
D03*
Y108858D02*
D03*
X102363Y149016D02*
D03*
Y108858D02*
D03*
D58*
X142520Y163976D02*
D03*
X12599D02*
D03*
X137848Y391693D02*
D03*
X147848D02*
D03*
X137848Y381693D02*
D03*
X147848D02*
D03*
Y401693D02*
D03*
X137848D02*
D03*
D59*
X97848Y391693D02*
D03*
D60*
Y381693D02*
D03*
X107848Y391693D02*
D03*
Y381693D02*
D03*
X117848Y391693D02*
D03*
Y381693D02*
D03*
X127848Y391693D02*
D03*
Y381693D02*
D03*
X137848Y391693D02*
D03*
Y381693D02*
D03*
X147848Y391693D02*
D03*
Y381693D02*
D03*
X157848Y391693D02*
D03*
Y381693D02*
D03*
X167848Y391693D02*
D03*
Y381693D02*
D03*
D61*
X219000Y377293D02*
D03*
X39508Y377539D02*
D03*
D62*
X232283Y165354D02*
D03*
Y291339D02*
D03*
Y185039D02*
D03*
Y271654D02*
D03*
Y196850D02*
D03*
Y259842D02*
D03*
X106300Y165354D02*
D03*
Y291339D02*
D03*
Y185039D02*
D03*
Y271654D02*
D03*
Y196850D02*
D03*
Y259842D02*
D03*
D63*
X157848Y391693D02*
D03*
X97848D02*
D03*
D64*
X167848D02*
D03*
X157848Y381693D02*
D03*
X167848D02*
D03*
X127848D02*
D03*
Y391693D02*
D03*
X117848Y381693D02*
D03*
Y391693D02*
D03*
X97848Y381693D02*
D03*
X107848Y391693D02*
D03*
Y381693D02*
D03*
D65*
X161811Y258268D02*
D03*
X147047Y264370D02*
D03*
X153150Y279134D02*
D03*
X167913Y273031D02*
D03*
X147047D02*
D03*
X161811Y279134D02*
D03*
X167913Y264370D02*
D03*
X153150Y258268D02*
D03*
X246457Y367520D02*
D03*
X231693Y373622D02*
D03*
X237795Y388386D02*
D03*
X252559Y382283D02*
D03*
X231693D02*
D03*
X246457Y388386D02*
D03*
X252559Y373622D02*
D03*
X237795Y367520D02*
D03*
X20079D02*
D03*
X5315Y373622D02*
D03*
X11417Y388386D02*
D03*
X26181Y382283D02*
D03*
X5315D02*
D03*
X20079Y388386D02*
D03*
X26181Y373622D02*
D03*
X11417Y367520D02*
D03*
D66*
X157480Y94488D02*
D03*
X188000Y364830D02*
D03*
X133000Y341000D02*
D03*
X73000Y360000D02*
D03*
X236000Y313000D02*
D03*
X102000Y353000D02*
D03*
D67*
X68800Y341535D02*
D03*
X61122D02*
D03*
X197737Y341535D02*
D03*
X190059D02*
D03*
D68*
X175197Y126772D02*
D03*
Y138976D02*
D03*
X165354D02*
D03*
Y126772D02*
D03*
X155512D02*
D03*
Y138976D02*
D03*
X57087Y128740D02*
D03*
Y140945D02*
D03*
X47244D02*
D03*
Y128740D02*
D03*
X37402D02*
D03*
Y140945D02*
D03*
D69*
X210512Y367539D02*
D03*
X203819D02*
D03*
X50654Y367520D02*
D03*
X57346D02*
D03*
D70*
X220473Y120669D02*
D03*
Y137205D02*
D03*
X91536Y120669D02*
D03*
Y137205D02*
D03*
D71*
X157480Y268701D02*
D03*
X242126Y377953D02*
D03*
X15748D02*
D03*
Y228346D02*
D03*
X62992Y34449D02*
D03*
X157480Y228346D02*
D03*
X15748Y268701D02*
D03*
M02*
