G04 Layer_Color=32768*
%FSLAX25Y25*%
%MOIN*%
G70*
G01*
G75*
%ADD74C,0.00394*%
D74*
X64961Y339567D02*
Y343504D01*
X62993Y341535D02*
X66930D01*
X58071Y345177D02*
X71851D01*
X58071Y337894D02*
X71851D01*
Y345177D01*
X58071Y337894D02*
Y345177D01*
X193898Y339567D02*
Y343504D01*
X191929Y341535D02*
X195867D01*
X187008Y345177D02*
X200788D01*
X187008Y337894D02*
X200788D01*
Y345177D01*
X187008Y337894D02*
Y345177D01*
X173229Y132874D02*
X177166D01*
X175197Y130905D02*
Y134843D01*
X179626Y123819D02*
Y141929D01*
X170768Y123819D02*
Y141929D01*
Y123819D02*
X179626D01*
X170768Y141929D02*
X179626D01*
X163386Y132874D02*
X167323D01*
X165354Y130905D02*
Y134843D01*
X160925Y123819D02*
Y141929D01*
X169783Y123819D02*
Y141929D01*
X160925D02*
X169783D01*
X160925Y123819D02*
X169783D01*
X153543Y132874D02*
X157480D01*
X155512Y130905D02*
Y134843D01*
X159941Y123819D02*
Y141929D01*
X151083Y123819D02*
Y141929D01*
Y123819D02*
X159941D01*
X151083Y141929D02*
X159941D01*
X55118Y134843D02*
X59055D01*
X57087Y132874D02*
Y136811D01*
X61516Y125787D02*
Y143898D01*
X52658Y125787D02*
Y143898D01*
Y125787D02*
X61516D01*
X52658Y143898D02*
X61516D01*
X45276Y134843D02*
X49213D01*
X47244Y132874D02*
Y136811D01*
X42815Y125787D02*
Y143898D01*
X51673Y125787D02*
Y143898D01*
X42815D02*
X51673D01*
X42815Y125787D02*
X51673D01*
X35433Y134843D02*
X39370D01*
X37402Y132874D02*
Y136811D01*
X41831Y125787D02*
Y143898D01*
X32972Y125787D02*
Y143898D01*
Y125787D02*
X41831D01*
X32972Y143898D02*
X41831D01*
X207165Y365768D02*
Y369311D01*
X205394Y367539D02*
X208937D01*
X201063Y370394D02*
X213268D01*
X201063Y364685D02*
X213268D01*
Y370394D01*
X201063Y364685D02*
Y370394D01*
X54000Y365748D02*
Y369291D01*
X52228Y367520D02*
X55772D01*
X47898Y364665D02*
X60102D01*
X47898Y370374D02*
X60102D01*
X47898Y364665D02*
Y370374D01*
X60102Y364665D02*
Y370374D01*
X218504Y128937D02*
X222441D01*
X220473Y126969D02*
Y130905D01*
X227363Y116929D02*
Y140945D01*
X213583Y116929D02*
Y140945D01*
Y116929D02*
X227363D01*
X213583Y140945D02*
X227363D01*
X89567Y128937D02*
X93504D01*
X91536Y126969D02*
Y130905D01*
X98426Y116929D02*
Y140945D01*
X84646Y116929D02*
Y140945D01*
Y116929D02*
X98426D01*
X84646Y140945D02*
X98426D01*
M02*
